<?xml version="1.0" encoding="UTF-8"?>
<svg id="clock" xmlns="http://www.w3.org/2000/svg" xmlns:xlink="http://www.w3.org/1999/xlink" viewBox="0 0 450.16 481.6">
  <defs>
    <style>
      .cls-1 {
        stroke: #fff;
        stroke-width: .75px;
      }

      .cls-1, .cls-2 {
        fill: none;
        stroke-miterlimit: 10;
      }

      .cls-3, .cls-4 {
        stroke-width: 0px;
      }

      .cls-2 {
        stroke: red;
        stroke-width: 2px;
      }

      .cls-4 {
        fill: url(#radial-gradient);
      }
    </style>
    <radialGradient id="radial-gradient" cx="178.55" cy="229.6" fx="178.55" fy="229.6" r="163.4" gradientTransform="translate(21.31 17.08) scale(.84 .79)" gradientUnits="userSpaceOnUse">
      <stop offset="0" stop-color="#fff"/>
      <stop offset=".07" stop-color="#fbfbfb"/>
      <stop offset=".14" stop-color="#f1f1f1"/>
      <stop offset=".2" stop-color="#dfdfdf"/>
      <stop offset=".26" stop-color="#c6c6c6"/>
      <stop offset=".31" stop-color="#a6a6a6"/>
      <stop offset=".37" stop-color="#7f7f7f"/>
      <stop offset=".42" stop-color="#505050"/>
      <stop offset=".47" stop-color="#1c1c1c"/>
      <stop offset=".49" stop-color="#000"/>
      <stop offset=".5" stop-color="#080808"/>
      <stop offset=".56" stop-color="#414141"/>
      <stop offset=".62" stop-color="#737373"/>
      <stop offset=".68" stop-color="#9e9e9e"/>
      <stop offset=".74" stop-color="#c1c1c1"/>
      <stop offset=".81" stop-color="#dcdcdc"/>
      <stop offset=".87" stop-color="#efefef"/>
      <stop offset=".93" stop-color="#fbfbfb"/>
      <stop offset="1" stop-color="#fff"/>
    </radialGradient>
  </defs>
  <path id="clock-border" class="cls-3" d="M225.08,0C100.77,0,0,107.81,0,240.8s100.77,240.8,225.08,240.8,225.08-107.81,225.08-240.8S349.39,0,225.08,0ZM225.08,459.33c-112.81,0-204.26-97.84-204.26-218.53S112.27,22.27,225.08,22.27s204.26,97.84,204.26,218.53-91.45,218.53-204.26,218.53Z"/>
  <ellipse id="hand-join" class="cls-3" cx="225.08" cy="240.8" rx="18.02" ry="19.28"/>
  <g id="long-double">
    <polygon id="long-hand" class="cls-3" points="332.78 97.92 212.36 240.17 230.2 251.91 230.65 251.31 332.78 97.92"/>
    <line id="long-second-hand" class="cls-1" x1="315.04" y1="121.05" x2="230.1" y2="228.78"/>
  </g>
  <line id="second-hand" class="cls-2" x1="225.53" y1="238.39" x2="197.21" y2="437.42"/>
  <g id="short-double">
    <polygon id="short-hand" class="cls-3" points="222.53 91.85 214.05 256.19 230.98 256.19 230.98 255.53 222.53 91.85"/>
    <line id="short-second-hand" class="cls-1" x1="222.52" y1="138.41" x2="222.52" y2="227.43"/>
  </g>
  <ellipse id="hand-join-2" data-name="hand-join" class="cls-4" cx="225.08" cy="240.8" rx="18.02" ry="19.28"/>
</svg>