<?xml version="1.0" encoding="UTF-8"?>
<svg id="control-button" xmlns="http://www.w3.org/2000/svg" xmlns:xlink="http://www.w3.org/1999/xlink" viewBox="0 0 854.37 506" width="1200" height="800">
  <defs>
    <style>
      .cls-1 {
        fill: url(#linear-gradient);
      }

      .cls-1, .cls-2, .cls-3 {
        stroke-width: 0px;
      }

      .cls-3 {
        fill: #fff;
      }

#control-button{
  margin-left:-200px;
}

  #play-click {
      pointer-events: auto;
      cursor: pointer;
    }

    #play-click:active {
      fill: blue;
      
    }

    #play-click:active ~ #stop-button,#pause-button{
      opacity:1;
    }

 <!-- i do not know how to make the #play-click:active ~ #stop-button, #pause-button REMAIN in it's 
 active state  -->

  #pause-click {
      pointer-events: auto;
      cursor: pointer;
    }

    #pause-click:active {
      fill: blue;
    }
#pause-click:active ~ #stop-button{
      opacity:0;
    }
   
 <!-- i do not know how to make the #pause-click:active ~ #stop-button, #pause-button REMAIN in it's 
 active state  -->

  #stop-click {
      pointer-events: auto;
      cursor: pointer;
    }

    #stop-click:active {
      fill: blue;
    }

   #stop-click:active ~ #pause-button, #play-button {
      opacity:0;
    }
    </style>
  

    
    <linearGradient id="linear-gradient" x1="293.87" y1="260.18" x2="503.29" y2="260.18" gradientUnits="userSpaceOnUse">
      <stop offset=".32" stop-color="#fff"/>
      <stop offset=".42" stop-color="#fbfbfb"/>
      <stop offset=".51" stop-color="#f0f0f0"/>
      <stop offset=".59" stop-color="#dedede"/>
      <stop offset=".67" stop-color="#c5c5c5"/>
      <stop offset=".75" stop-color="#a4a4a4"/>
      <stop offset=".83" stop-color="#7b7b7b"/>
      <stop offset=".9" stop-color="#4b4b4b"/>
      <stop offset=".97" stop-color="#151515"/>
      <stop offset="1" stop-color="#000"/>
    </linearGradient>

     <script>
   console.log("JS file connected");
    const VectorGraphic = document.querySelector('#control-button');

    function logThisId() {
      console.log(this);
      console.log('You Played, You Paused, Thou shalt ignore the stop', this.id);
    }

    VectorGraphic.addEventListener('click', logThisId);
  </script>
  </defs>
  <rect class="cls-1" x="293.87" y="155.47" width="209.42" height="209.42" rx="104.71" ry="104.71" transform="translate(-63.51 374.33) rotate(-47.01)"/>
  <g id="play-click">
    <rect class="cls-3" x="216.31" y="231" width="62" height="38"/>
    <g id="played">
      <path class="cls-2" d="M224.32,250.13v6.78h-2.1v-17.93h4.93c1.92,0,3.4.47,4.46,1.4,1.05.93,1.58,2.25,1.58,3.95s-.59,3.09-1.76,4.18-2.75,1.62-4.74,1.62h-2.36ZM224.32,240.88v7.35h2.2c1.45,0,2.56-.33,3.32-.99.76-.66,1.14-1.6,1.14-2.81,0-2.37-1.4-3.55-4.2-3.55h-2.46Z"/>
      <path class="cls-2" d="M240.9,256.91h-2.05v-18.95h2.05v18.95Z"/>
      <path class="cls-2" d="M256.77,256.91h-2.05v-2h-.05c-.89,1.53-2.2,2.3-3.94,2.3-1.27,0-2.27-.34-2.99-1.01-.72-.68-1.08-1.57-1.08-2.69,0-2.39,1.41-3.78,4.23-4.18l3.84-.54c0-2.17-.88-3.26-2.64-3.26-1.54,0-2.93.53-4.18,1.58v-2.1c1.26-.8,2.71-1.2,4.35-1.2,3.01,0,4.51,1.59,4.51,4.78v8.33ZM254.72,250.43l-3.09.43c-.95.13-1.67.37-2.15.71-.48.34-.73.94-.73,1.79,0,.62.22,1.14.67,1.53.45.4,1.04.59,1.78.59,1.02,0,1.86-.36,2.52-1.07.66-.71.99-1.61.99-2.71v-1.28Z"/>
      <path class="cls-2" d="M273.38,244.11l-5.89,14.85c-1.05,2.65-2.53,3.98-4.43,3.98-.53,0-.98-.05-1.34-.16v-1.84c.44.15.85.23,1.21.23,1.03,0,1.81-.62,2.33-1.85l1.02-2.43-5-12.78h2.28l3.46,9.85c.04.12.13.45.26.98h.08c.04-.2.12-.52.25-.95l3.64-9.88h2.12Z"/>
    </g>
  </g>
  <g id="pause-click">
    <rect class="cls-3" x="521.31" y="228" width="78" height="38"/>
    <g id="paused">
      <path class="cls-2" d="M527.06,249.49v6.78h-2.1v-17.93h4.92c1.92,0,3.4.47,4.46,1.4,1.05.93,1.58,2.25,1.58,3.95s-.59,3.09-1.76,4.18-2.75,1.62-4.74,1.62h-2.36ZM527.06,240.24v7.35h2.2c1.45,0,2.56-.33,3.32-.99s1.14-1.6,1.14-2.81c0-2.37-1.4-3.55-4.2-3.55h-2.46Z"/>
      <path class="cls-2" d="M549.93,256.27h-2.05v-2h-.05c-.89,1.53-2.2,2.3-3.94,2.3-1.28,0-2.27-.34-2.99-1.01-.72-.68-1.08-1.57-1.08-2.69,0-2.39,1.41-3.78,4.23-4.18l3.84-.54c0-2.17-.88-3.26-2.64-3.26-1.54,0-2.93.53-4.18,1.58v-2.1c1.26-.8,2.71-1.2,4.35-1.2,3.01,0,4.51,1.59,4.51,4.78v8.33ZM547.88,249.79l-3.09.43c-.95.13-1.67.37-2.15.71-.48.34-.72.94-.72,1.79,0,.62.22,1.14.67,1.53.45.4,1.04.59,1.78.59,1.02,0,1.86-.36,2.52-1.07.66-.71.99-1.61.99-2.71v-1.28Z"/>
      <path class="cls-2" d="M566.7,256.27h-2.05v-2.02h-.05c-.85,1.55-2.17,2.32-3.95,2.32-3.05,0-4.58-1.82-4.58-5.45v-7.65h2.04v7.33c0,2.7,1.03,4.05,3.1,4.05,1,0,1.82-.37,2.47-1.11.65-.74.97-1.7.97-2.89v-7.38h2.05v12.8Z"/>
      <path class="cls-2" d="M572.62,255.81v-2.2c1.12.83,2.35,1.24,3.69,1.24,1.8,0,2.7-.6,2.7-1.8,0-.34-.08-.63-.23-.87-.15-.24-.36-.45-.62-.63-.26-.18-.57-.35-.93-.49-.35-.15-.74-.3-1.14-.46-.57-.23-1.06-.45-1.49-.68-.43-.23-.79-.49-1.07-.78-.29-.29-.5-.61-.65-.98-.15-.37-.22-.8-.22-1.29,0-.6.14-1.13.41-1.59.28-.46.64-.85,1.1-1.16.46-.31.98-.55,1.57-.71.59-.16,1.19-.24,1.82-.24,1.11,0,2.1.19,2.97.58v2.08c-.94-.62-2.02-.93-3.25-.93-.38,0-.73.04-1.04.13-.31.09-.57.21-.79.37-.22.16-.39.35-.51.57-.12.22-.18.46-.18.73,0,.33.06.61.18.84.12.23.3.43.53.6.23.18.52.33.85.48.33.14.71.3,1.14.46.57.22,1.08.44,1.53.67.45.23.83.49,1.15.77.32.29.56.62.73.99.17.38.26.82.26,1.34,0,.63-.14,1.18-.42,1.65s-.65.85-1.12,1.16c-.47.31-1,.54-1.61.69-.61.15-1.25.22-1.91.22-1.32,0-2.46-.25-3.43-.76Z"/>
      <path class="cls-2" d="M597.11,250.38h-9.04c.03,1.42.42,2.52,1.15,3.3.73.78,1.74,1.16,3.03,1.16,1.44,0,2.77-.47,3.97-1.42v1.92c-1.12.82-2.61,1.23-4.46,1.23s-3.23-.58-4.26-1.74-1.55-2.8-1.55-4.91c0-1.99.56-3.61,1.69-4.87,1.13-1.25,2.53-1.88,4.21-1.88s2.97.54,3.89,1.63,1.38,2.59,1.38,4.51v1.08ZM595.01,248.64c0-1.18-.29-2.1-.86-2.76s-1.34-.99-2.34-.99-1.79.35-2.46,1.04c-.68.69-1.09,1.6-1.25,2.71h6.91Z"/>
    </g>
  </g>
  <g id="stop-click">
    <rect class="cls-3" x="358.31" y="108" width="68" height="38"/>
    <g id="stooped">
      <path class="cls-2" d="M364.13,132.54v-2.48c.28.25.62.48,1.02.67.4.2.81.37,1.25.51.44.14.88.24,1.32.32.44.08.85.11,1.22.11,1.29,0,2.26-.24,2.89-.72.64-.48.96-1.17.96-2.07,0-.48-.11-.9-.32-1.26-.21-.36-.51-.69-.88-.98s-.82-.58-1.33-.85c-.51-.27-1.07-.56-1.66-.86-.62-.32-1.21-.64-1.75-.96-.54-.33-1.01-.68-1.41-1.08-.4-.39-.71-.84-.94-1.33-.23-.5-.34-1.08-.34-1.74,0-.82.18-1.53.54-2.13.36-.6.83-1.1,1.41-1.49.58-.39,1.25-.68,1.99-.88.75-.19,1.51-.29,2.28-.29,1.77,0,3.05.21,3.86.64v2.36c-1.06-.73-2.42-1.1-4.08-1.1-.46,0-.92.05-1.38.14-.46.1-.87.25-1.23.47s-.65.5-.88.84-.34.76-.34,1.25c0,.46.09.85.26,1.19.17.33.42.64.76.91.33.27.74.54,1.22.8.48.26,1.03.54,1.66.85.64.32,1.25.65,1.82,1,.58.35,1.08.74,1.51,1.16.43.42.78.9,1.03,1.41.25.52.38,1.11.38,1.77,0,.88-.17,1.63-.52,2.24-.35.61-.81,1.11-1.4,1.49s-1.26.66-2.03.83c-.77.17-1.58.26-2.43.26-.28,0-.63-.02-1.05-.07-.42-.05-.84-.11-1.28-.2-.43-.09-.84-.2-1.23-.33-.39-.13-.7-.27-.93-.43Z"/>
      <path class="cls-2" d="M385.96,133.14c-.48.27-1.12.4-1.91.4-2.24,0-3.36-1.25-3.36-3.75v-7.58h-2.2v-1.75h2.2v-3.13l2.05-.66v3.79h3.22v1.75h-3.22v7.21c0,.86.15,1.47.44,1.84.29.37.77.55,1.45.55.52,0,.96-.14,1.34-.42v1.75Z"/>
      <path class="cls-2" d="M396.41,133.57c-1.89,0-3.4-.6-4.53-1.79-1.13-1.2-1.69-2.78-1.69-4.76,0-2.15.59-3.83,1.76-5.04s2.76-1.81,4.76-1.81,3.4.59,4.47,1.76c1.07,1.18,1.61,2.8,1.61,4.89s-.58,3.68-1.73,4.91c-1.15,1.23-2.7,1.84-4.64,1.84ZM396.56,121.89c-1.32,0-2.36.45-3.12,1.34s-1.15,2.13-1.15,3.71.39,2.71,1.16,3.59,1.81,1.31,3.11,1.31,2.34-.43,3.06-1.29c.71-.86,1.07-2.08,1.07-3.66s-.36-2.83-1.07-3.7-1.73-1.3-3.06-1.3Z"/>
      <path class="cls-2" d="M410.72,131.42h-.05v7.74h-2.05v-18.69h2.05v2.25h.05c1.01-1.7,2.48-2.55,4.43-2.55,1.65,0,2.94.57,3.86,1.72.93,1.15,1.39,2.68,1.39,4.61,0,2.14-.52,3.86-1.56,5.14s-2.47,1.93-4.28,1.93c-1.66,0-2.94-.72-3.84-2.15ZM410.67,126.25v1.79c0,1.06.34,1.96,1.03,2.69.69.74,1.56,1.11,2.62,1.11,1.24,0,2.21-.47,2.92-1.42s1.06-2.27,1.06-3.96c0-1.43-.33-2.54-.99-3.35-.66-.81-1.55-1.21-2.68-1.21-1.19,0-2.15.42-2.88,1.24s-1.09,1.87-1.09,3.12Z"/>
    </g>
  </g>
  <g id="play-button">
    <rect class="cls-2" x="294.09" y="162.09" width="202.57" height="202.57" rx="101.29" ry="101.29"/>
    <polygon class="cls-3" points="434.2 262.79 357.73 199.26 358.02 244.49 356.55 327.5 434.2 262.79"/>
  </g>
  <g id="pause-button">
    <rect class="cls-2" x="294.09" y="163.09" width="202.57" height="202.57" rx="101.29" ry="101.29"/>
    <rect class="cls-3" x="354.31" y="202" width="34" height="131"/>
    <rect class="cls-3" x="403.31" y="202" width="34" height="131"/>
  </g>
  <g id="stop-button">
    <rect class="cls-2" x="295.09" y="163.09" width="202.57" height="202.57" rx="101.29" ry="101.29"/>
    <g>
      <path class="cls-3" d="M338.41,256.84c-1.02.54-2.29.81-3.82.81-1.97,0-3.54-.63-4.72-1.9-1.18-1.27-1.77-2.93-1.77-4.99,0-2.21.67-4,2-5.36,1.33-1.36,3.02-2.04,5.06-2.04,1.31,0,2.4.19,3.26.57v1.73c-.99-.55-2.08-.83-3.28-.83-1.59,0-2.88.53-3.86,1.59-.99,1.06-1.48,2.48-1.48,4.25s.46,3.03,1.38,4.03c.92,1,2.13,1.5,3.63,1.5,1.39,0,2.59-.31,3.61-.93v1.57Z"/>
      <path class="cls-3" d="M344.56,257.42h-1.58v-14.62h1.58v14.62Z"/>
      <path class="cls-3" d="M350.55,245.04c-.28,0-.52-.1-.72-.29s-.3-.44-.3-.73.1-.54.3-.74.44-.29.72-.29.54.1.74.29c.2.2.3.44.3.74s-.1.52-.3.72c-.2.2-.45.3-.74.3ZM351.32,257.42h-1.58v-9.87h1.58v9.87Z"/>
      <path class="cls-3" d="M363.23,256.97c-.76.46-1.66.68-2.7.68-1.41,0-2.54-.46-3.41-1.37-.87-.92-1.3-2.1-1.3-3.56,0-1.63.47-2.93,1.4-3.92.93-.99,2.18-1.48,3.73-1.48.87,0,1.63.16,2.29.48v1.62c-.73-.51-1.52-.77-2.35-.77-1.01,0-1.84.36-2.48,1.08-.65.72-.97,1.67-.97,2.85s.3,2.07.91,2.74,1.42,1,2.44,1c.86,0,1.67-.29,2.43-.86v1.5Z"/>
      <path class="cls-3" d="M375.79,257.42h-2.22l-4.36-4.74h-.04v4.74h-1.58v-14.62h1.58v9.27h.04l4.15-4.52h2.07l-4.58,4.76,4.94,5.11Z"/>
      <path class="cls-3" d="M390.9,257.65c-1.46,0-2.62-.46-3.5-1.38s-1.31-2.15-1.31-3.67c0-1.66.45-2.95,1.36-3.89.91-.93,2.13-1.4,3.67-1.4s2.62.45,3.45,1.36c.83.91,1.24,2.16,1.24,3.77s-.44,2.84-1.33,3.78c-.89.95-2.08,1.42-3.58,1.42ZM391.01,248.65c-1.02,0-1.82.35-2.41,1.04s-.89,1.64-.89,2.86.3,2.09.9,2.77c.6.68,1.4,1.01,2.4,1.01s1.81-.33,2.36-.99c.55-.66.83-1.6.83-2.83s-.28-2.19-.83-2.85c-.55-.67-1.33-1-2.36-1Z"/>
      <path class="cls-3" d="M408.51,257.42h-1.58v-5.63c0-2.1-.76-3.14-2.29-3.14-.79,0-1.44.3-1.96.89s-.78,1.34-.78,2.25v5.63h-1.58v-9.87h1.58v1.64h.04c.75-1.25,1.83-1.87,3.24-1.87,1.08,0,1.91.35,2.48,1.05.57.7.86,1.71.86,3.02v6.04Z"/>
      <path class="cls-3" d="M330.61,271.94v5.23h-1.62v-13.83h3.8c1.48,0,2.62.36,3.44,1.08.81.72,1.22,1.74,1.22,3.05s-.45,2.39-1.35,3.22c-.9.84-2.12,1.25-3.66,1.25h-1.82ZM330.61,264.81v5.67h1.7c1.12,0,1.97-.25,2.56-.77.59-.51.88-1.23.88-2.16,0-1.83-1.08-2.74-3.24-2.74h-1.9Z"/>
      <path class="cls-3" d="M343.4,277.17h-1.58v-14.62h1.58v14.62Z"/>
      <path class="cls-3" d="M355.64,277.17h-1.58v-1.54h-.04c-.69,1.18-1.7,1.77-3.04,1.77-.98,0-1.75-.26-2.31-.78-.56-.52-.83-1.21-.83-2.07,0-1.84,1.09-2.92,3.26-3.22l2.96-.41c0-1.68-.68-2.52-2.03-2.52-1.19,0-2.26.41-3.22,1.21v-1.62c.97-.62,2.09-.93,3.36-.93,2.32,0,3.48,1.23,3.48,3.68v6.42ZM354.06,272.17l-2.38.33c-.73.1-1.29.29-1.66.54-.37.26-.56.72-.56,1.38,0,.48.17.88.52,1.18.34.31.8.46,1.37.46.78,0,1.43-.28,1.94-.82.51-.55.77-1.25.77-2.09v-.98Z"/>
      <path class="cls-3" d="M368.45,267.3l-4.54,11.46c-.81,2.04-1.95,3.07-3.41,3.07-.41,0-.75-.04-1.03-.12v-1.42c.34.12.65.17.94.17.8,0,1.39-.47,1.79-1.43l.79-1.87-3.86-9.85h1.75l2.67,7.6c.03.1.1.35.2.75h.06c.03-.15.1-.4.19-.73l2.81-7.62h1.64Z"/>
      <path class="cls-3" d="M383.64,277.4c-1.46,0-2.62-.46-3.5-1.38-.87-.92-1.31-2.15-1.31-3.67,0-1.66.45-2.95,1.36-3.88s2.13-1.4,3.67-1.4,2.62.45,3.45,1.36c.83.91,1.24,2.16,1.24,3.77s-.44,2.84-1.33,3.79c-.89.95-2.08,1.42-3.58,1.42ZM383.75,268.39c-1.02,0-1.82.35-2.41,1.04s-.89,1.64-.89,2.86.3,2.09.9,2.77,1.4,1.01,2.4,1.01,1.81-.33,2.36-.99c.55-.66.83-1.6.83-2.83s-.28-2.19-.83-2.85c-.55-.67-1.33-1-2.36-1Z"/>
      <path class="cls-3" d="M398.2,268.9c-.28-.21-.68-.32-1.2-.32-.67,0-1.24.32-1.69.96s-.68,1.5-.68,2.6v5.03h-1.58v-9.87h1.58v2.03h.04c.22-.69.57-1.24,1.03-1.62.46-.39.98-.58,1.55-.58.41,0,.73.05.95.14v1.64Z"/>
      <path class="cls-3" d="M411.11,271.94v5.23h-1.62v-13.83h3.8c1.48,0,2.62.36,3.44,1.08.81.72,1.22,1.74,1.22,3.05s-.45,2.39-1.35,3.22c-.9.84-2.12,1.25-3.66,1.25h-1.82ZM411.11,264.81v5.67h1.7c1.12,0,1.97-.25,2.56-.77.59-.51.88-1.23.88-2.16,0-1.83-1.08-2.74-3.24-2.74h-1.9Z"/>
      <path class="cls-3" d="M428.74,277.17h-1.58v-1.54h-.04c-.69,1.18-1.7,1.77-3.04,1.77-.98,0-1.75-.26-2.31-.78-.56-.52-.83-1.21-.83-2.07,0-1.84,1.09-2.92,3.26-3.22l2.96-.41c0-1.68-.68-2.52-2.03-2.52-1.19,0-2.26.41-3.22,1.21v-1.62c.97-.62,2.09-.93,3.36-.93,2.32,0,3.48,1.23,3.48,3.68v6.42ZM427.16,272.17l-2.38.33c-.73.1-1.29.29-1.66.54-.37.26-.56.72-.56,1.38,0,.48.17.88.52,1.18.34.31.8.46,1.37.46.78,0,1.43-.28,1.94-.82.51-.55.77-1.25.77-2.09v-.98Z"/>
      <path class="cls-3" d="M441.68,277.17h-1.58v-1.56h-.04c-.66,1.2-1.67,1.79-3.05,1.79-2.35,0-3.53-1.4-3.53-4.2v-5.9h1.57v5.65c0,2.08.8,3.12,2.39,3.12.77,0,1.41-.29,1.9-.85s.75-1.31.75-2.23v-5.69h1.58v9.87Z"/>
      <path class="cls-3" d="M446.25,276.81v-1.7c.86.64,1.81.96,2.84.96,1.39,0,2.08-.46,2.08-1.39,0-.26-.06-.49-.18-.67-.12-.18-.28-.35-.48-.49-.2-.14-.44-.27-.71-.38-.27-.11-.57-.23-.88-.35-.44-.17-.82-.35-1.15-.53s-.61-.38-.83-.6c-.22-.22-.39-.47-.5-.76s-.17-.61-.17-.99c0-.46.11-.87.32-1.23.21-.36.5-.66.85-.9.35-.24.76-.42,1.21-.54.45-.12.92-.18,1.4-.18.85,0,1.62.15,2.29.44v1.6c-.73-.48-1.56-.71-2.51-.71-.3,0-.56.03-.8.1-.24.07-.44.16-.61.29-.17.12-.3.27-.39.44-.09.17-.14.36-.14.56,0,.26.05.47.14.65.09.17.23.33.41.46s.4.26.66.37c.26.11.55.23.88.36.44.17.83.34,1.18.52.35.18.64.38.89.6.24.22.43.48.56.77.13.29.2.63.2,1.03,0,.49-.11.91-.32,1.27-.21.36-.5.66-.86.9-.36.24-.78.41-1.24.53-.47.12-.96.17-1.48.17-1.02,0-1.9-.2-2.64-.59Z"/>
      <path class="cls-3" d="M465.14,272.63h-6.97c.03,1.1.32,1.95.89,2.55.57.6,1.34.9,2.33.9,1.11,0,2.13-.37,3.07-1.1v1.49c-.87.63-2.02.94-3.44.94s-2.49-.45-3.29-1.34c-.8-.9-1.2-2.16-1.2-3.78,0-1.54.44-2.79,1.31-3.76s1.95-1.45,3.24-1.45,2.29.42,3,1.25,1.06,2,1.06,3.48v.83ZM463.52,271.29c0-.91-.23-1.62-.66-2.13s-1.04-.76-1.81-.76-1.38.27-1.9.8c-.52.53-.84,1.23-.96,2.09h5.33Z"/>
    </g>
  </g>
</svg>