<?xml version="1.0" encoding="UTF-8"?>
<svg id="duck-main" xmlns="http://www.w3.org/2000/svg" viewBox="0 0 512.29 524.25">
  <defs>
    <style>
      .cls-1 {
        opacity: .88;
      }

      .cls-2 {
        fill: #d0212d;
      }

      .cls-2, .cls-3, .cls-4, .cls-5, .cls-6, .cls-7, .cls-8, .cls-9, .cls-10, .cls-11, .cls-12 {
        stroke-width: 0px;
      }

      .cls-13 {
        letter-spacing: .17em;
      }

      .cls-14 {
        stroke: red;
        stroke-width: 2px;
      }

      .cls-14, .cls-15, .cls-16, .cls-17, .cls-18 {
        stroke-miterlimit: 10;
      }

      .cls-19 {
        letter-spacing: .16em;
      }

      .cls-15, .cls-16 {
        stroke: #000;
      }

      .cls-3 {
        opacity: .11;
      }

      .cls-5 {
        fill: #f7755d;
      }

      .cls-6 {
        fill: red;
      }

      .cls-20 {
        letter-spacing: .19em;
      }

      .cls-7 {
        fill: #f7931e;
      }

      .cls-8, .cls-18 {
        fill: #fff;
      }

      .cls-16 {
        opacity: .68;
      }

      .cls-9 {
        fill: #9a5454;
      }

      .cls-21 {
        font-family: Arial-Black, Arial;
        font-weight: 800;
      }

      .cls-21, .cls-22 {
        font-size: 57.53px;
      }

      .cls-10 {
        fill: #f15a24;
      }

      .cls-22 {
        font-family: GillSans-UltraBold, 'Gill Sans Ultra Bold';
        font-weight: 700;
        letter-spacing: 0em;
      }

      .cls-11 {
        fill: #d33043;
        opacity: .85;
      }

      .cls-23 {
        letter-spacing: .19em;
      }

      .cls-17 {
        fill: none;
        stroke: #690000;
        stroke-width: 3px;
      }

      .cls-17, .cls-24 {
        opacity: .67;
      }

      .cls-18 {
        stroke: #fff;
      }

      .cls-12 {
        fill: #690000;
      }
    </style>
  </defs>
  <g id="Layer_8" data-name="Layer 8">
    <ellipse class="cls-16" cx="287" cy="316.62" rx="82.5" ry="26.5"/>
    <path id="duck-shadow" class="cls-15" d="M369.5,311.12c-10,24-36.94,26-82.5,26s-84.5-18-84.5-31-16-53,84-49c90.43,3.62,93,30,83,54Z"/>
    <path class="cls-8" d="M230.22,255.4c11.61,18.2,32.31,27.25,53.31,28.64,12.97.86,26.05-1.11,38.65-4.04,8.72-2.03,20.26-4.99,18.86-16.39-1.32-10.78-11.96-14.57-21.34-15.59-13.45-1.46-27-2.22-40.48-3.32-6.53-.53-13.06-1.06-19.59-1.59-5.81-.47-12.37-1.94-18.15-.67-3.24.71-7.87,3.21-7.87,7.13,0,4.56,5.45,7.14,9.33,7.13,3.01,0,5.86-1.29,8.83-1.55,3.53-.31,7.14.28,10.66.61,7.94.75,15.88,1.5,23.81,2.24s15.88,1.49,23.81,2.24,14.17,1.76,19.37,8.04l.81-6.28c-7.43,4.83-18.08,4.33-26.64,5.22-9.53.99-19.28,2.53-28.76.47-5.06-1.1-6.98,6.02-2.13,7.71,8.25,2.88,16.98,3.6,25.59,2.04,9.37-1.7,17.02-7.34,26.01-10.03,3.47-1.04,4.13-7.09,0-7.71-6.61-.99-13.99-2.33-20.6-.86s-12.47,5.56-19.4,6.82c-7.09,1.28-14.51,1.09-21.58-.22-5.63-1.04-15.72-2.49-17.08-9.22l-3.86,5.06c10.09.12,20.19.25,30.28.37,9.23.11,20.12-1.32,28.97,1.58v-7.71c-16.23,4.03-33.15,8.04-49.59,2.85-4.92-1.55-7.03,6.17-2.13,7.71,17.81,5.62,36.24,1.52,53.84-2.85,4-.99,3.6-6.53,0-7.71-9.07-2.97-19.73-1.73-29.14-1.84-10.75-.13-21.49-.27-32.24-.4-2.74-.03-4.36,2.57-3.86,5.06,2.82,13.9,24.31,16,35.62,16.14,7.67.1,15.45-1.11,22.6-3.91,3.77-1.48,7.27-3.89,11.38-4.26,4.77-.42,9.94.39,14.65,1.09v-7.71c-7.88,2.36-14.72,7.23-22.69,9.3s-16.67,1.48-24.66-1.31l-2.13,7.71c10.89,2.37,21.83.76,32.78-.38,9.52-.99,20.49-.73,28.79-6.12,2.31-1.5,2.49-4.25.81-6.28-10.14-12.26-28.48-10.71-42.89-12.07-8.6-.81-17.2-1.62-25.8-2.43-4.39-.41-8.95-1.17-13.37-1.08-2.68.06-10.68,3.02-11.97.49v4.04c1.85-3,8.97-1.26,11.71-1.03,4.9.4,9.8.8,14.69,1.19,9.14.74,18.29,1.49,27.43,2.23s18.15.86,27,2.34c3.88.65,8.21,1.88,10.28,5.52,2.58,4.53-.45,7.26-4.64,8.56-29.71,9.17-71.46,10.67-90.41-19.02-2.76-4.33-9.69-.32-6.91,4.04h0Z"/>
    <path class="cls-8" d="M222.96,239.32c11.61,18.2,32.31,27.25,53.31,28.64,12.97.86,26.05-1.11,38.65-4.04,8.72-2.03,20.26-4.99,18.86-16.39-1.32-10.78-11.96-14.57-21.34-15.59-13.45-1.46-27-2.22-40.48-3.32-6.53-.53-13.06-1.06-19.59-1.59-5.81-.47-12.37-1.94-18.15-.67-3.24.71-7.87,3.21-7.87,7.13,0,4.56,5.45,7.14,9.33,7.13,3.01,0,5.86-1.29,8.83-1.55,3.53-.31,7.14.28,10.66.61,7.94.75,15.88,1.5,23.81,2.24s15.88,1.49,23.81,2.24,14.17,1.76,19.37,8.04l.81-6.28c-7.43,4.83-18.08,4.33-26.64,5.22-9.53.99-19.28,2.53-28.76.47-5.06-1.1-6.98,6.02-2.13,7.71,8.25,2.88,16.98,3.6,25.59,2.04,9.37-1.7,17.02-7.34,26.01-10.03,3.47-1.04,4.13-7.09,0-7.71-6.61-.99-13.99-2.33-20.6-.86s-12.47,5.56-19.4,6.82c-7.09,1.28-14.51,1.09-21.58-.22-5.63-1.04-15.72-2.49-17.08-9.22l-3.86,5.06c10.09.12,20.19.25,30.28.37,9.23.11,20.12-1.32,28.97,1.58v-7.71c-16.23,4.03-33.15,8.04-49.59,2.85-4.92-1.55-7.03,6.17-2.13,7.71,17.81,5.62,36.24,1.52,53.84-2.85,4-.99,3.6-6.53,0-7.71-9.07-2.97-19.73-1.73-29.14-1.84-10.75-.13-21.49-.27-32.24-.4-2.74-.03-4.36,2.57-3.86,5.06,2.82,13.9,24.31,16,35.62,16.14,7.67.1,15.45-1.11,22.6-3.91,3.77-1.48,7.27-3.89,11.38-4.26,4.77-.42,9.94.39,14.65,1.09v-7.71c-7.88,2.36-14.72,7.23-22.69,9.3s-16.67,1.48-24.66-1.31l-2.13,7.71c10.89,2.37,21.83.76,32.78-.38,9.52-.99,20.49-.73,28.79-6.12,2.31-1.5,2.49-4.25.81-6.28-10.14-12.26-28.48-10.71-42.89-12.07-8.6-.81-17.2-1.62-25.8-2.43-4.39-.41-8.95-1.17-13.37-1.08-2.68.06-10.68,3.02-11.97.49v4.04c1.85-3,8.97-1.26,11.71-1.03,4.9.4,9.8.8,14.69,1.19,9.14.74,18.29,1.49,27.43,2.23s18.15.86,27,2.34c3.88.65,8.21,1.88,10.28,5.52,2.58,4.53-.45,7.26-4.64,8.56-29.71,9.17-71.46,10.67-90.41-19.02-2.76-4.33-9.69-.32-6.91,4.04h0Z"/>
    <path class="cls-6" d="M222.32,137.3c4.41-5.38,6.61-11.82,7.55-18.65s.82-13.82,1.58-20.71c.84-7.66,2.96-15.12,5.98-22.2,2.8-6.57,6.13-13.31,10.51-18.98,1.9-2.46,4.13-4.7,6.83-6.26,2.95-1.71,6.26-2.42,9.64-2.5,1.93-.04,1.93-3.04,0-3-6.19.14-11.77,2.4-16.13,6.82-4.81,4.87-8.13,11.25-11.11,17.33-3.51,7.17-6.35,14.73-7.82,22.59-1.31,7.04-1.38,14.16-1.9,21.28-.58,7.89-2.1,15.87-7.25,22.15-1.22,1.48.9,3.62,2.12,2.12h0Z"/>
    <path class="cls-6" d="M261.95,46.52c1.56-3.74,1.2-8.05.17-11.89-.53-1.98-1.27-3.9-2.15-5.75-.42-.88-.86-1.75-1.2-2.67-.21-.56-.95-2.41-.31-2.94.16-.14.34-.11.54-.08.09.01.71.28.42.12-.25-.14.02.01.07.11.1.2.03.02-.02-.03.07.09.14.19.21.29.61.87,1.16,1.77,1.72,2.67,1.26,2.04,2.46,4.17,3.98,6.03.51.62,1.14,1.28,2.01,1.28,1.15,0,1.68-1.03,1.71-2.05.04-2.05-.68-4.25-1.15-6.22-.58-2.43-1.26-4.86-1.63-7.34-.03-.22-.07-.61-.09-.96,0-.12.04-.3,0-.41.13.52-.1.17-.01.13.21-.1-.31.3-.29.26-.17.39-.22-.13.07.23.06.08.24.16.33.23.32.25.61.56.9.84.76.74,1.5,1.49,2.25,2.24,3.38,3.34,6.66,6.75,8.17,11.37,1.3,3.99,1.5,8.7-1.42,12.04-1.27,1.45.85,3.58,2.12,2.12,6.08-6.96,2.62-17.21-2.73-23.45-1.53-1.79-3.24-3.42-4.91-5.08-1.22-1.21-2.55-2.97-4.32-3.36-1.46-.32-2.9.68-3.11,2.13-.14.97.07,2,.24,2.96.48,2.72,1.21,5.39,1.83,8.08.27,1.16.56,2.33.72,3.52-.03-.2.03.24.03.33,0,.14-.02.32,0,.45.06.3-.03-.19.02-.15.13.09,1.24-.67,1.71-.81.22-.07.38.34.04-.05-1.44-1.72-2.74-4.03-4.01-6.06-1.19-1.92-2.22-4.22-4.75-4.44s-3.89,1.83-3.83,4.1c.06,2.42,1.45,4.65,2.41,6.8,1.99,4.44,3.3,9.96,1.35,14.63-.31.75.34,1.64,1.05,1.85.86.25,1.53-.3,1.85-1.05h0Z"/>
    <g class="cls-24">
      <path class="cls-12" d="M276.6,31.05c11.7,4.54,23.27,10.11,32.96,18.19s17.29,18.65,20.91,30.79c3.75,12.55,3.96,26.12,2.26,39.04-.86,6.52-2.29,12.99-4.29,19.25-1.89,5.9-4.24,11.77-7.76,16.9-6.75,9.84-17.36,15.25-28.45,18.81-1.5.48-3.01.93-4.52,1.37-1.85.53-1.06,3.43.8,2.89,11.66-3.35,23.4-8.01,31.55-17.39,4.25-4.89,7.16-10.61,9.47-16.62,2.41-6.27,4.14-12.79,5.32-19.4,2.41-13.5,2.76-27.67-.28-41.1-2.92-12.87-9.78-24.48-19.35-33.53s-21.14-15.24-33.13-20.22c-1.55-.64-3.11-1.27-4.68-1.87-1.8-.7-2.58,2.2-.8,2.89h0Z"/>
    </g>
    <path class="cls-6" d="M330.95,144.65c3.03,2.4,6.59,2.74,10.08,4.09,3.31,1.28,5.3,4.23,6.95,7.22,3.54,6.39,6.51,13.58,6.51,20.98,0,4.06-.67,8.24-2.43,11.92-.83,1.73,1.76,3.26,2.59,1.51,3.31-6.9,3.74-15.51,1.55-22.82-1.12-3.75-2.79-7.48-4.52-10.99-1.59-3.23-3.5-6.65-6.41-8.87-3.63-2.77-8.65-2.36-12.2-5.17-1.5-1.19-3.63.92-2.12,2.12h0Z"/>
    <path class="cls-9" d="M330.26,145.88c3.21,2.27,7.06,2.6,10.7,3.77s5.94,3.78,7.92,6.87,3.7,6.74,5.25,10.25,2.36,7.13,2.38,10.97c.02,4.17-.77,8.43-2.76,12.12-.92,1.7,1.67,3.22,2.59,1.51,3.75-6.96,4.25-16.13,1.48-23.52-1.44-3.83-3.27-7.64-5.33-11.18-1.87-3.23-4.17-6.6-7.47-8.51-4.14-2.4-9.29-2.08-13.23-4.88-1.58-1.12-3.08,1.48-1.51,2.59h0Z"/>
    <path class="cls-6" d="M276.72,31.05c12.01,4.52,23.93,10.04,33.98,18.15,9.91,7.99,17.87,18.55,21.65,30.79,3.88,12.58,4.13,26.26,2.32,39.22-.92,6.62-2.42,13.18-4.55,19.51-1.98,5.9-4.45,11.74-8.1,16.81-7.06,9.79-18.03,15.05-29.27,18.53-1.52.47-3.04.91-4.57,1.34-1.86.52-1.07,3.41.8,2.89,11.86-3.3,23.9-7.87,32.37-17.2,4.36-4.81,7.39-10.46,9.79-16.45s4.33-12.81,5.58-19.44c2.55-13.6,2.93-27.94-.25-41.48-3.03-12.93-10.16-24.49-19.92-33.45s-21.92-15.3-34.27-20.27c-1.58-.63-3.16-1.25-4.75-1.84-1.81-.68-2.59,2.22-.8,2.89h0Z"/>
    <path class="cls-9" d="M227.24,155.7c-3.19,5.25-7.62,9.5-11.95,13.8-3.93,3.91-6.7,8.91-8.56,14.1s-2.82,10.43-3.08,15.76c-.19,3.88-.15,8.06,1.46,11.67,1.4,3.13,4.59,5.62,8.07,4.26,2.71-1.06,4.47-3.62,5.71-6.14,3.28-6.63,4.43-14.15,6.33-21.23.96-3.58,2.22-6.77,4.05-10,3.25-5.73,8.13-10.28,13.11-14.5,1.48-1.25-.66-3.36-2.12-2.12-7.05,5.97-13.65,12.88-16.73,21.78-2.25,6.52-3.25,13.41-5.42,19.96-.89,2.69-1.94,5.65-3.84,7.81-1.59,1.8-3.59,2.7-5.46.53-2.26-2.6-2.28-6.88-2.23-10.13.07-4.71.8-9.42,2.1-13.94,1.63-5.67,4.34-11.33,8.57-15.54,4.55-4.53,9.21-9.03,12.57-14.56,1-1.65-1.59-3.16-2.59-1.51h0Z"/>
    <path class="cls-6" d="M225.24,155.7c-3.19,5.25-7.62,9.5-11.95,13.8-3.93,3.91-6.7,8.91-8.56,14.1s-2.82,10.43-3.08,15.76c-.19,3.88-.15,8.06,1.46,11.67,1.4,3.13,4.59,5.62,8.07,4.26,2.71-1.06,4.47-3.62,5.71-6.14,3.28-6.63,4.43-14.15,6.33-21.23.96-3.58,2.22-6.77,4.05-10,3.25-5.73,8.13-10.28,13.11-14.5,1.48-1.25-.66-3.36-2.12-2.12-7.05,5.97-13.65,12.88-16.73,21.78-2.25,6.52-3.25,13.41-5.42,19.96-.89,2.69-1.94,5.65-3.84,7.81-1.59,1.8-3.59,2.7-5.46.53-2.26-2.6-2.28-6.88-2.23-10.13.07-4.71.8-9.42,2.1-13.94,1.63-5.67,4.34-11.33,8.57-15.54,4.55-4.53,9.21-9.03,12.57-14.56,1-1.65-1.59-3.16-2.59-1.51h0Z"/>
    <path class="cls-6" d="M232.26,171.41c2.23-.98,4.99-.91,7.37-.72s4.94.63,7.12,1.72c5.84,2.94,10.87,7.58,17.36,9.15,1.88.45,2.68-2.44.8-2.89-6.72-1.63-11.63-6.88-17.92-9.44-2.53-1.03-5.34-1.45-8.05-1.59s-5.62.06-8.18,1.18c-1.76.77-.24,3.36,1.51,2.59h0Z"/>
    <path class="cls-9" d="M356.45,177.51c5.34-.19,10.46-2.76,15.72-2.63.88.02,1.86.17,2.49.55.71.42,1.17.97,1.44,1.88,1.09,3.68-.51,8.19-1.63,11.7-2.1,6.58-4.76,13.09-9.02,18.58-1.17,1.51.94,3.65,2.12,2.12,4.06-5.23,6.83-11.19,8.98-17.43,1.57-4.57,3.48-9.81,2.68-14.72-.44-2.7-2.2-4.82-4.91-5.43s-5.74-.03-8.48.57c-3.12.68-6.34,1.7-9.39,1.81-1.92.07-1.93,3.07,0,3h0Z"/>
    <path class="cls-6" d="M358.45,176.51c5.34-.19,10.46-2.76,15.72-2.63.88.02,1.86.17,2.49.55.71.42,1.17.97,1.44,1.88,1.09,3.68-.51,8.19-1.63,11.7-2.1,6.58-4.76,13.09-9.02,18.58-1.17,1.51.94,3.65,2.12,2.12,4.06-5.23,6.83-11.19,8.98-17.43,1.57-4.57,3.48-9.81,2.68-14.72-.44-2.7-2.2-4.82-4.91-5.43s-5.74-.03-8.48.57c-3.12.68-6.34,1.7-9.39,1.81-1.92.07-1.93,3.07,0,3h0Z"/>
    <path class="cls-9" d="M376.05,186.52c1.76,9.63,3.45,19.37,3.22,29.2-.11,4.85-.71,9.75-2.42,14.31-1.45,3.86-3.79,7.54-6.59,10.56-5.47,5.89-13.33,10.2-21.48,10.41-3.84.1-7.64-.78-10.92-2.81-3.93-2.43-6.74-6.34-8.66-10.47-5.09-10.96-3.37-23.85-1.99-35.43.23-1.91-2.77-1.9-3,0-1.32,11.09-2.75,22.93,1.07,33.7,1.71,4.83,4.48,9.58,8.46,12.89,3.33,2.78,7.31,4.44,11.6,4.96,8.73,1.05,17.58-2.73,24.12-8.32,3.46-2.95,6.14-6.49,8.33-10.45,2.43-4.38,3.62-9.22,4.16-14.18,1.28-11.74-.89-23.65-3-35.17-.35-1.9-3.24-1.09-2.89.8h0Z"/>
    <path class="cls-6" d="M378.05,188.52c1.76,9.63,3.45,19.37,3.22,29.2-.11,4.85-.71,9.75-2.42,14.31-1.45,3.86-3.79,7.54-6.59,10.56-5.47,5.89-13.33,10.2-21.48,10.41-3.84.1-7.64-.78-10.92-2.81-3.93-2.43-6.74-6.34-8.66-10.47-5.09-10.96-3.37-23.85-1.99-35.43.23-1.91-2.77-1.9-3,0-1.32,11.09-2.75,22.93,1.07,33.7,1.71,4.83,4.48,9.58,8.46,12.89,3.33,2.78,7.31,4.44,11.6,4.96,8.73,1.05,17.58-2.73,24.12-8.32,3.46-2.95,6.14-6.49,8.33-10.45,2.43-4.38,3.62-9.22,4.16-14.18,1.28-11.74-.89-23.65-3-35.17-.35-1.9-3.24-1.09-2.89.8h0Z"/>
    <path class="cls-6" d="M211.1,212.94c3.13,12.45,7.25,24.8,13.58,36.01s14.93,20.96,26.2,27.12c6.55,3.59,13.83,6.06,21.09,7.73,7.79,1.78,15.85,2.57,23.84,2.14,8.4-.45,16.42-2.53,24.43-4.99,5.37-1.65,11.02-3.07,16.04-5.63,2.25-1.15,4.43-2.66,5.85-4.79s1.47-4.74.77-7.25c-1.73-6.28-6.33-11.62-10.02-16.83-.9-1.27-1.78-2.54-2.6-3.86-1.02-1.63-3.62-.13-2.59,1.51,3.34,5.33,7.53,10.11,10.51,15.67,1.13,2.11,2.52,4.88,2.17,7.37-.29,2.03-2.31,3.63-3.93,4.64-4.49,2.8-9.83,3.93-14.81,5.56-7.34,2.4-14.83,4.6-22.54,5.35-14.87,1.44-30.48-1.36-43.96-7.8-11.02-5.27-19.7-14.1-26.07-24.41s-10.71-22.13-13.93-33.94c-.4-1.46-.78-2.93-1.15-4.4-.47-1.87-3.36-1.08-2.89.8h0Z"/>
    <g id="right-leg">
      <path class="cls-8" d="M282.67,308.12c2.34.26,4.58.24,6.05,1.16,2.86,2.36-9.32,10.48,1.88,7.39,1.65-.41,3.29-.85,4.92-1.31,2.26-.62,4.85-1.58,5.49-.89,1.66,1.69-6,8.39-2.77,8.37,3.19-.67,5.74-3.15,8.64-4.61,3.81-2.11,7.98-3.66,11.44-6.37,5.29-4.02,7.98-10.57,10.37-16.87,1.17-3.27,6.2-15.6-.94-14.15-12.15,6.44-25.52,10.01-38.67,14.16-5.62,1.6-11.77,5.98-7.19,12.2"/>
      <path class="cls-6" d="M282.67,309.62c.92.1,1.84.15,2.75.26.76.09,1.56.49,2.29.54-.09,0,.05-.25-.05-.14.08-.1-.12.43-.11.4-.57,1.38-1.66,2.52-2.45,3.77s-1.41,3.07.15,4.01c1.83,1.11,4.8-.11,6.63-.58,1.96-.5,3.9-1.05,5.85-1.61.69-.2,1.62-.24,2.26-.54.35-.16.13-.02-.15-.33-.03-.03-.12-.32-.1-.32.14.05-.16.16.01,0-.17.16-.2.6-.32.82-.23.43-.49.84-.75,1.25-.52.8-1.09,1.56-1.61,2.36-.84,1.29-1.98,3.47-.13,4.53,1.23.7,2.74.01,3.9-.5,1.63-.72,3.09-1.75,4.59-2.72,3.18-2.04,6.71-3.44,10-5.28s6.03-4.09,8.25-7.06c3.49-4.66,5.55-10.35,7.46-15.81.7-1.99,1.33-4.03,1.66-6.12.29-1.85.48-4.01-.61-5.65-1.37-2.06-4.03-1.94-5.99-.92-3.61,1.87-7.33,3.49-11.12,4.95-7.64,2.94-15.49,5.25-23.3,7.67-5.03,1.56-13.46,3.99-12.94,10.83.13,1.67.82,3.18,1.78,4.54,1.11,1.56,3.71.07,2.59-1.51-1.66-2.35-1.89-4.71.27-6.8s5.03-2.88,7.79-3.74c7.3-2.28,14.65-4.42,21.84-7.04,3.56-1.3,7.07-2.71,10.51-4.29,1.48-.68,2.98-1.71,4.52-2.22.3-.1.72-.16.94-.13.34.04.45.12.58.26.19.2.33.75.37,1.29.06.9-.06,1.8-.22,2.68-.37,1.95-.98,3.86-1.64,5.73-1.8,5.11-3.73,10.44-7.05,14.79-4.33,5.67-11.21,7.47-17,11.15-1.34.85-2.63,1.79-4.05,2.49-.35.17-.7.33-1.07.46-.14.05-.78.15-.87.26.24-.31,1.03,1.2.81.72.17.37-.19.44.06.18.17-.18.67-1.18.99-1.65.54-.79,1.1-1.57,1.61-2.38.84-1.35,1.84-3.3.57-4.72-.73-.82-1.84-.83-2.84-.68-1.72.26-3.4.88-5.08,1.34-1.89.52-3.8,1.07-5.72,1.48-.49.1-.97.19-1.47.22-.24.01-.31.11-.19.02-.23.16-.17-.25.14.16.14.19.17.49.29.64.16.2-.15.24.05-.07-.18.29.26-.44.34-.57.42-.67.91-1.3,1.36-1.96.88-1.27,1.98-2.9,1.57-4.54-.75-2.97-5.6-2.68-7.91-2.92-1.92-.2-1.9,2.8,0,3h0Z"/>
    </g>
    <g>
      <path class="cls-4" d="M235.79,132.56c.95-4.24,1.38-8.56,1.89-12.87.48-4.51,1.26-8.95.81-13.5-.18-2.59-.81-5.51-.32-8.03,1.5-4.64,5.75,2.33,7.04,3.97,5.06,6.59,6.36,10.78,3.03,18.58-2.58,7.84-4.23,8.24-11.59,10.6"/>
      <path class="cls-4" d="M237.24,132.95c.77-3.51,1.22-7.07,1.64-10.64s.91-7.04,1.15-10.57-.34-6.98-.52-10.52c-.04-.73-.08-1.5.03-2.23.06-.38.28-.69.35-1.01-.08.36-.35-.26-.15.11.08.14.7.48.88.65,1.22,1.15,2.12,2.56,3.12,3.89,1.53,2.06,3.16,4.16,4.08,6.58.84,2.22.94,4.53.4,6.84-.32,1.39-.84,2.69-1.35,4.02-.45,1.16-.8,2.35-1.31,3.49-.72,1.59-1.64,3.01-3.16,3.93-1.88,1.12-4.09,1.68-6.16,2.34-1.83.59-1.05,3.48.8,2.89,4.06-1.3,8.23-2.44,10.48-6.39,1.36-2.39,2.3-5.22,3.13-7.83.89-2.77,1.22-5.71.53-8.57s-2.38-5.51-4.15-7.89c-1.25-1.68-2.41-3.47-3.85-4.99-1.28-1.35-3.32-2.79-5.12-1.42-2.56,1.95-1.47,6.54-1.18,9.22.48,4.51,0,8.89-.53,13.38s-.98,9.33-1.99,13.92c-.41,1.88,2.48,2.69,2.89.8h0Z"/>
    </g>
    <g>
      <path class="cls-4" d="M283.07,107.45c2.62-2.42,5.23-4.86,7.8-7.33,2.13-1.82,3.84-4.5,5.81-3.63.88.6,1.28,2.27,1.52,3.48,1.92,9.72,2.35,19.88-2.18,28.77-1.1,1.89-2.8,6.73-5.43,5.93-1.77-.78-3.02-5.61-3.86-8.2-1.82-6.01-2.86-12.23-3.44-18.49"/>
      <path class="cls-4" d="M284.14,108.51c2.44-2.26,4.87-4.53,7.27-6.83.94-.9,1.87-1.81,2.82-2.72.42-.4.82-.72,1.31-1.04.1-.06.21-.08.32-.11.21.04.2.01-.02-.1.09.08.16.18.21.29.92,2.59,1.32,5.35,1.64,8.09.34,2.91.49,5.85.34,8.78s-.61,5.78-1.47,8.57c-.7,2.28-1.75,4.37-2.83,6.49-.41.81-.83,1.66-1.39,2.39-.21.28-.48.62-.79.79-.2.11-.53.1-.36.17-.61-.27-1.01-1.48-1.25-2.03-.44-1.02-.78-2.1-1.11-3.16-2.07-6.57-3.37-13.26-4.02-20.11-.18-1.91-3.18-1.92-3,0,.69,7.24,2.02,14.3,4.23,21.23.69,2.17,1.46,5.22,3.48,6.55,2.12,1.4,4.31-.35,5.52-2.06,1.37-1.96,2.47-4.38,3.38-6.58,1.33-3.22,2.1-6.61,2.45-10.07s.25-7.02-.13-10.51c-.19-1.75-.45-3.49-.75-5.23-.26-1.48-.49-3.01-1.13-4.38-.69-1.47-2-2.39-3.67-2.03-1.47.32-2.6,1.47-3.63,2.49-3.1,3.08-6.34,6.03-9.54,9-1.42,1.32.71,3.43,2.12,2.12h0Z"/>
    </g>
    <g id="left-leg">
      <path class="cls-8" d="M233.23,270.98c-3.31,1.01-9.29,3.38-10.03,6.61.08,2.58,4.05,1.9,5.82,2.38,5.57,1.01.67,5.6,2.52,8.22,2.22,1.74,6.32-1.42,8.48.51.95,1.14-1.88,4.25.12,4.33.78.05,2.17-.33,3.7-.67,2.56-.61,6.27-.67,7.91-2.72,2.33-3.32-1.53-6.81-3.98-8.81-4.48-3.63-9.18-7.05-13.91-10.4"/>
      <path class="cls-6" d="M232.83,269.54c-2.95.91-5.97,2.09-8.42,4.01-2.05,1.6-4.18,4.97-1.15,6.83,1.12.69,2.5.77,3.78.87.85.06,2.64.02,3.16.82.32.49-.13,1.68-.26,2.25-.27,1.15-.51,2.36-.21,3.53.89,3.41,4.89,2.21,7.34,1.81.55-.09,1.14.07,1.65,0,.2-.03.02-.05,0-.3.02.2-.13.54-.2.75-.35,1.06-.95,2.25-.36,3.35.72,1.31,2.32,1.14,3.57.92,1.82-.32,3.62-.76,5.44-1.09,3.12-.56,6.68-1.93,6.79-5.66.12-3.96-3.87-6.86-6.64-9.05-4.14-3.27-8.4-6.38-12.71-9.43-1.58-1.12-3.08,1.48-1.51,2.59,3.28,2.32,6.55,4.68,9.74,7.13,2.51,1.92,5.69,3.92,7.41,6.65.63.99,1.09,2.29.23,3.31s-2.54,1.27-3.77,1.51c-1.4.27-2.79.49-4.18.81-.68.15-1.5.19-2.15.41h-.25c.64.22.89.53.75.93.11-.09.19-.65.24-.8.32-.93.74-1.89.52-2.89-.27-1.24-1.46-1.92-2.64-2.13s-2.43.04-3.62.29c-.54.11-1.08.25-1.63.29-.27.02-.54.01-.81,0-.45-.02-.44-.4-.24.03-.28-.63-.05-1.39.1-2.04.22-.98.51-1.98.45-2.99-.16-2.62-2.58-3.6-4.86-3.87-1.04-.13-2.41.04-3.37-.44-.31-.16-.3-.16-.3-.26.01-.47.79-1.12,1.1-1.41,2.1-1.94,5.11-2.99,7.79-3.82,1.84-.57,1.05-3.47-.8-2.89h0Z"/>
    </g>
    <ellipse class="cls-14" cx="288.86" cy="62.92" rx="17.43" ry="66.8" transform="translate(174.37 335.49) rotate(-79.5)"/>
    <path class="cls-17" d="M332.58,86.2c-12.22.76-28.11-.34-45.2-3.51-36.27-6.72-64.19-20.21-62.35-30.12s32.73-12.51,69.01-5.78c36.27,6.72,64.19,20.21,62.35,30.12-.81,4.39-7.33,7.35-17.5,8.69-.32.04-.65.08-.98.12"/>
    <path class="cls-14" d="M284.28,3.46h26.4c18.96,0,34.35,15.39,34.35,34.35v25.18c0,2.04-1.66,3.7-3.7,3.7h-87.7c-2.04,0-3.7-1.66-3.7-3.7v-25.18c0-18.96,15.39-34.35,34.35-34.35Z" transform="translate(11.37 -53.61) rotate(10.5)"/>
    <g class="cls-1">
      <path class="cls-4" d="M223.41,152.72c3.76.89,6.82,3.61,10.61,4.34s7.2-1.11,10.16-3.33c1.43-1.07,2.82-2.2,4.4-3.05,1.37-.74,2.93-1.19,4.01-2.38s1.43-2.87.12-3.98c-1.24-1.05-3.36-.9-4.88-1.06-4.76-.51-9.52-1.03-14.28-1.54-1.67-.18-2.06,2.64-.4,2.95,3.2.59,6.39,1.19,9.59,1.78l2.4.44c.23.04.73.24.96.18.44.18.45-.04.03-.66.05-.65-.07-.86-.38-.63-.53-.02-1.53.67-2.04.89-.77.33-1.54.66-2.31.98-1.43.61-.62,2.79.76,2.8,2.81,0,5.53-1.26,8.14-2.15,1.81-.62,1.08-3.41-.8-2.89-2.24.62-4.48.68-6.74.16-1.36-.31-2.22,1.02-1.69,2.2.38.85.85,1.09.2,1.88-.43.52-.94,1-1.49,1.39-1.19.85-2.63,1.41-4.09,1.58-1.53.17-3.03-.07-4.43-.71-1.63-.74-3.11-1.73-4.9-2.09l-.4,2.95c3.49.15,6.88.81,10.19,1.93l-.66-2.51c-.25.22-1.16.22-1.51.39-.48.24-.89.58-1.16,1.04-.58,1.01-.22,2.21.7,2.87.18.13,1.12.63.81.28-.1-.26-.13-.25-.08.02.01.2.04.41.07.61.06.19.15.38.27.54.69,1,1.98,1.11,2.86.31,1.07-.97-.05-3.04-1.46-2.51-1.69.64-4.1-1-5.6-1.79-1.75-.92-3.46-2.03-4.69-3.61-.5-.65-1.28-.98-2.05-.54-.64.36-1.03,1.41-.54,2.05,1.64,2.13,3.74,3.65,6.12,4.87,2.22,1.14,5,2.88,7.55,1.91l-1.46-2.51-.13.12,1.06-.44c.75.97,1.07,1.16.95.56-.01-.14-.03-.27-.05-.41-.06-.27-.14-.53-.3-.76-.29-.44-.71-.71-1.16-.94-.09-.05-.37-.23-.47-.22-.24.92-.12,1.31.38,1.17.11-.02.22-.04.33-.06.64-.04,1.21-.44,1.67-.83.91-.79.33-2.17-.66-2.51-3.55-1.21-7.24-1.88-10.99-2.04-1.67-.07-2.07,2.61-.4,2.95,2.31.47,4.17,2.08,6.46,2.63,2,.49,4.15.41,6.11-.2s3.68-1.65,5.03-3.11c.7-.76,1.46-1.68,1.53-2.76.08-1.14-.6-2.03-1.04-3.02l-1.69,2.2c2.78.64,5.59.59,8.34-.16l-.8-2.89c-2.32.79-4.86,2.05-7.35,2.04l.76,2.8c.98-.42,1.96-.83,2.94-1.25.86-.37,1.77-.66,2.38-1.41,1.13-1.4.24-2.99-1.33-3.4-2.02-.53-4.17-.77-6.23-1.16-2.24-.42-4.47-.83-6.71-1.25l-.4,2.95c4.36.47,8.71.94,13.07,1.41,1.13.12,2.26.23,3.39.37-.05,0,.84.11.82.15-.1-.63-.26-.75-.47-.33-.11.13-.23.23-.37.32-1.38,1.01-3.13,1.5-4.56,2.47-3,2.04-6.2,5.53-10.17,5.14-1.89-.19-3.59-1.19-5.24-2.05-1.86-.97-3.77-1.87-5.82-2.36-1.88-.45-2.68,2.45-.8,2.89h0Z"/>
    </g>
    <path class="cls-6" d="M219.4,140.33c1.9-1.52,3.7-3.66,6.24-4.02,1.79-.25,3.57.07,5.37-.26,2.04-.37,3.97-1.14,5.97-1.66,3.76-.98,7.63-1.47,11.09-3.35,2.96-1.6,5.44-4,7.32-6.77.97-1.43,1.75-2.99,2.37-4.6.29-.75.53-1.51.72-2.29.11-.45.2-.92.34-1.36.19-.59.37-.51-.48-.46-1.04.06-.56-.05-.34.39.12.23.3.45.44.67.47.75.93,1.52,1.41,2.26.98,1.49,2.05,2.91,3.19,4.28,2.33,2.77,5.01,5.23,7.94,7.35s5.96,3.53,9.14,5.05c1.14.55,2.69,1.27,3.12,2.58.51,1.57-.75,3.47-1.58,4.69-2.15,3.17-4.82,6.29-8.08,8.35s-7.2,2.88-10.96,3.74c-4.28.98-8.58,1.92-12.91,2.67s-8.67,1.62-12.87,1.08c-3.95-.51-7.35-2.47-10.54-4.74-2.72-1.93-5.63-4.61-6.41-7.99-.19-.85-.31-2.05.48-2.63.61-.44,1.52-.36,2.23-.4,1.13-.06,2.27-.09,3.4-.12,4.56-.09,9.12.07,13.67.28,2.15.1,4.3.22,6.45.3,1.13.04,2.22.2,3.3.54.67.21,1.92.61,2.22,1.34.44,1.06-1.28,2.27-1.98,2.75-1.53,1.05-3.2,1.88-4.74,2.91-1.65,1.1-3.22,2.33-4.71,3.65s-2.8,2.67-4.1,4.11.82,3.56,2.12,2.12c3.01-3.33,6.33-6.24,10.21-8.53,2.56-1.51,7.14-3.89,6.15-7.61-.71-2.69-4.05-3.73-6.47-4.09-1.98-.29-4.02-.27-6.02-.36-2.44-.12-4.88-.23-7.33-.31-2.6-.08-5.21-.13-7.81-.1-2.17.03-4.76-.2-6.86.39-3.31.93-3.88,4.53-2.87,7.4,1.33,3.8,4.33,6.67,7.54,8.95,3.66,2.6,7.55,4.63,12.07,5.16,2.33.27,4.67.01,6.99-.24,2.47-.27,4.93-.64,7.38-1.07,4.79-.84,9.54-1.9,14.27-3.02,4.29-1.01,8.35-2.38,11.82-5.17,1.73-1.39,3.24-3.03,4.63-4.75,1.3-1.61,2.66-3.29,3.53-5.19.8-1.74,1.23-3.72.42-5.53-.69-1.53-2.09-2.59-3.53-3.36-1.64-.88-3.39-1.52-5.03-2.4-1.79-.96-3.51-2.05-5.15-3.25-3.28-2.42-6.22-5.39-8.61-8.69-1.07-1.47-1.93-3.08-2.98-4.56-.74-1.05-1.9-2.15-3.26-1.39-1.46.81-1.57,3.01-1.99,4.43-.55,1.83-1.38,3.55-2.44,5.13-2.09,3.14-5.11,5.61-8.67,6.87-2.19.77-4.47,1.19-6.72,1.71s-4.54,1.41-6.86,1.9c-1.96.41-3.94,0-5.91.36-1.33.23-2.56.82-3.64,1.62-1.33.99-2.54,2.12-3.84,3.16-1.51,1.2.63,3.31,2.12,2.12h0Z"/>
    <rect class="cls-4" x="153.36" y="137.76" width="90.29" height="8.85" rx="4.43" ry="4.43" transform="translate(24.9 -29.52) rotate(9.07)"/>
    <g>
      <ellipse class="cls-10" cx="155" cy="135.56" rx="5" ry="2" transform="translate(2.41 273.83) rotate(-83.35)"/>
      <ellipse class="cls-6" cx="155" cy="135.56" rx="5" ry="1" transform="translate(2.41 273.83) rotate(-83.35)"/>
      <ellipse class="cls-7" cx="156" cy="135.68" rx="5" ry="2" transform="translate(3.17 274.92) rotate(-83.35)"/>
    </g>
    <g id="cigar">
      <ellipse class="cls-11" cx="155" cy="135.56" rx="5" ry="2" transform="translate(2.41 273.83) rotate(-83.35)"/>
      <ellipse class="cls-2" cx="155" cy="135.56" rx="5" ry="1" transform="translate(2.41 273.83) rotate(-83.35)"/>
      <ellipse class="cls-5" cx="156" cy="135.68" rx="5" ry="2" transform="translate(3.17 274.92) rotate(-83.35)"/>
    </g>
    <ellipse id="left-eye" class="cls-18" cx="245" cy="115.12" rx="1.5" ry="3"/>
    <ellipse id="right-eye" class="cls-18" cx="295" cy="113.12" rx="1.5" ry="4"/>
    <text class="cls-22" transform="translate(185.58 396.21)"><tspan x="0" y="0">DOPE</tspan></text>
    <text class="cls-21" transform="translate(134.63 461.56)"><tspan class="cls-23" x="0" y="0">Q</tspan><tspan class="cls-19" x="58.85" y="0">U</tspan><tspan class="cls-13" x="115.74" y="0">A</tspan><tspan class="cls-20" x="170.38" y="0">CK</tspan></text>
    <g id="smoke1">
      <g>
        <path class="cls-3" d="M157.45,128.88c.57-.92.39-1.72-.28-2.63-.78-1.05-1.4-1.61-1.46-3.02l-.4.82c.52-.63,1.69-1.05,1.89-2,.23-1.11-1.09-2.31-1.6-3.16-.07-.12-.53.86-.45,1.06.19.49.66,1.18.72,1.69.14,1.09-.85,2.37-.63,3.43.17.79,1.76,2.6.66,3.31.1-.07,1.35.8,1.55.49Z"/>
        <path class="cls-3" d="M157.65,129.76c.45-.71.6-.79.41-1.76-.32-1.59-3.08-2.86-1.52-4.83.66-.84,1.1-.29.76-1.59-.03-.13-1.62-2.15-1.75-2.33-.08-.12-.27,0-.21.1.84.67,1.04,1.49.58,2.46.21.82-.01,1.35-.67,1.6-.03.02-.01.09,0,.12.53,1.93,3.16,3.96,1.78,5.9-.08.11.53.47.62.33Z"/>
        <path class="cls-3" d="M156.73,128.49c.48-.71.61-1.27.08-2.02-.19-.35-.44-.64-.76-.88-.58-.43-.89-1.03-.94-1.81l-1.18,3.05c.69-1.12,1.63-2.08,2.3-3.23.23-.39.57-.88.55-1.31-.06-1.24-1.18-2.26-1.8-3.24,0,0-.76,1.6-.75,1.58-.12.28-.7,1.28-.58,1.65.13.47.29.92.47,1.37.44.8.53,1.64.27,2.5l1.99-2.91c-.68.2-1,.39-1.47.83-.52,1-.99,2.02-1.41,3.06-.51,1.37.59,1.34,3.29-.08l-3.06.25-.31.32c.47-.14,2.95,1.38,3.3.86Z"/>
        <path class="cls-3" d="M156.78,128.88c1.47-2.17-2.09-2.56-1.18-4.58l-.71,1.44c.61-.85,1.3-1.65,1.67-2.63.51-1.33-.9-2.62-1.53-3.7.14.23-.84,1.69-.73,2.12.11.51.26,1.01.42,1.5.46.73.56,1.5.29,2.3l1.29-1.8c-.62.22-.9.39-1.22.93-.28.47-.64,1.81-.68,2.35-.03.45.49,1-.01,1.16.27-.08,2.12,1.31,2.39.92Z"/>
        <path class="cls-3" d="M157.51,128.63c.69-.93.54-1.75-.16-2.74-.76-1.08-1.49-1.71-1.65-3.11l-.41.6c.54-.51,1.74-.84,1.97-1.73.29-1.11-1.11-2.34-1.63-3.17-.09-.14-.5.75-.41.93.52,1.04,1.69,2.28.35,3.35-.1.08-.45.44-.41.6.21,1.02.67,1.71,1.14,2.64.39.77.95,1.55.08,2.34.04-.03.95.53,1.14.28Z"/>
        <path class="cls-3" d="M156.7,128.32c.51-.71.55-1.19.12-1.99-.18-.34-.42-.63-.72-.87-.61-.46-.9-1.11-.87-1.96l-.73,2.83c.52-1.06,1.3-1.99,1.82-3.05.19-.39.51-.84.48-1.26-.07-1.24-1.19-2.28-1.8-3.27,0,0-.62,1.47-.62,1.46-.1.29-.56,1.16-.44,1.52.45,1.32,1.03,2.35.94,3.79l1.54-2.56c-1.41.44-1.31.72-1.8,2.22-.38,1.15-.35,1.12-.53,1.9-.08.35.66.41-.11.69.42-.15,2.37,1.04,2.72.55Z"/>
        <path class="cls-3" d="M156.93,129.22c1.42-2.16-1.84-2.6-1.56-4.73l-.54,1.72c.32-.63,1.9-2.19,1.99-3.24s-1.19-2.35-1.71-3.24c.1.17-.87,1.49-.78,1.85.12.53.27,1.05.44,1.56.44.75.52,1.53.25,2.35l1.36-1.64c-1.13.44-1.22.84-1.63,2-.3.84-.43.93-.34,1.75.01.12.78.18,0,.41.25-.07,2.28,1.57,2.52,1.2Z"/>
        <path class="cls-3" d="M157.18,128.26c.41-.55.64-.67.41-1.52l-.57-1.15c-1.11-.79-1.65-1.79-1.61-3.02l-.3,1.04c.44-.67,1.14-1.01,1.54-1.71.74-1.31-.67-2.58-1.35-3.65-.04-.06-.46,1.12-.34,1.4.51,1.15,1.22,1.91.46,3.34l.91-.71c-.36-.01-.7.08-1,.28-.19.08-.4.93-.36,1.12.16.83.33,1.22.78,1.91s1.36,1.66.47,2.49c-.11.1.82.39.96.19Z"/>
        <path class="cls-3" d="M156.83,128.82c1.45-2.22-1.88-2.69-1.75-4.56l-1.3,2.7c.72-1.06,1.74-1.9,2.42-3,1.16-1.87-.19-2.88-1.22-4.5-.02-.03-.78,1.46-.77,1.43-.12.25-.7,1.16-.59,1.51.13.47.28.93.45,1.38.41.82.47,1.66.18,2.52l2.11-2.67c-2.11.6-1.83,1.43-3.06,3.8l-.03.09,3.57-.19-3.14-.06c.1.24,0,.35-.28.33.42-.12,3.09,1.7,3.4,1.22Z"/>
        <path class="cls-3" d="M156.89,128.51c.49-.69.49-1.17.09-1.94-.72-1.39-1.65-1.15-1.63-3.28l-.35,1.6.65-1.44-.61,1.15c.37-.46,1.6-1.77,1.72-2.57.16-1.11-1.14-2.37-1.66-3.24.13.22-.62,1.52-.5,1.92.33,1.13.89,2.26.56,3.49l1.12-1.34c-.98.23-1.12.52-1.31,1.48-.18.88-.21,1.6.16,2.46.13.31.92.9.13,1.26-.07.03,1.44.73,1.64.46Z"/>
        <path class="cls-3" d="M157.41,128.19c.56-.75.58-1.27.13-2.16-.68-1.35-1.8-2.06-1.99-3.63l-.4.91c.52-.64,1.71-1.07,1.95-2.01.3-1.18-1.06-2.34-1.62-3.21-.05-.08-.52,1.06-.39,1.3.56,1.12,1.38,1.88.48,3.26l.93-.58c-.37,0-.71.09-1.02.29-.17.08-.51.79-.47.97.23.94.71,1.53,1.21,2.36.44.73,1.08,1.49.28,2.33-.11.12.79.34.92.16Z"/>
        <path class="cls-3" d="M156.7,128.99c.47-.71.57-1.27.03-2.02-.19-.34-.45-.62-.77-.85-.59-.39-.89-.97-.9-1.75l-.85,2.33c.57-.96,1.49-1.72,2.01-2.72.14-.28.44-.84.45-1.15.03-1.15-1.22-2.3-1.77-3.19-.03-.04-.6,1.18-.59,1.16-.1.25-.51.92-.41,1.23.13.48.29.96.48,1.43.44.79.53,1.62.27,2.47l1.64-2.12c-1.66.55-2.3,1.84-2.53,3.69h.08c.46.1.48.2.05.27.29-.1,2.55,1.63,2.82,1.23Z"/>
      </g>
      <g>
        <path class="cls-3" d="M162.06,130.19c.61-1,.69-2.07.19-3.13-.56-1.17-1.7-1.8-2.01-3.14l-.2.91.47-.99-.4.64,1.01-.12s.42-.03.27-.15c-.28-.21-.55-.43-.82-.66-.05,0-.09.01-.12.06l-.29.29c-.15.15-.32.78-.25.98.49,1.35,2.15,3.6.6,4.86.08-.06,1.37.76,1.56.46Z"/>
        <path class="cls-3" d="M162.27,131.06c.57-.93.88-2.05.5-3.16-.32-.7-.77-1.3-1.36-1.8-1.38-1.82-1.53-2.38-.43-1.68.23.12.31-.04.09-.17-.31-.17-.62-.34-.93-.51-.05-.03-.22-.04-.25.03-.22.52-.26.52.14,1.15.14.27.35.49.63.66.67.52,1.05,1.21,1.15,2.09.54,1.48.68,1.83-.15,3.07-.07.11.53.45.62.31Z"/>
        <path class="cls-3" d="M161.34,129.81c.49-.73.88-1.74.47-2.63-.46-.99-1.98-1.2-1.98-2.53l-.65,3.32.34-.35c.32-.34.39-1.32.48-1.72.02-.08.21-1.68.3-1.76q.73.26,0,0c-.23.13-.41.29-.55.5-.99,1.16-.17,3.62-1.73,4.4.08-.04,1.59.47,1.64.48.07.02,1.56.48,1.69.3Z"/>
        <path class="cls-3" d="M161.39,130.19c.47-.71.81-1.66.4-2.53-.62-1.3-1.76-.94-1.92-2.91l-.28,2.18.24-.44c.24-.44.31-2.13.38-2.21.7.33.72.31.06-.05l-.06.05c-.71.76-.71,1.82-.7,2.85.01.87.38,1.73-.52,2.2.23-.12,2.14,1.26,2.4.86Z"/>
        <path class="cls-3" d="M162.12,129.94c.73-1.02.85-2.11.31-3.26-.58-1.23-1.86-1.86-2.25-3.23l-.29.67.58-.92-.57.51.62.08c.08.01.97.02.84-.07-.3-.2-.59-.41-.87-.64-.14-.11-.63.46-.65.56-.41,2.08,3.46,3.77,1.13,6.04.03-.03.97.51,1.15.25Z"/>
        <path class="cls-3" d="M161.31,129.63c.5-.71.89-1.69.5-2.59-.51-1.19-1.85-1.17-1.95-2.81l-.41,3.03.33-.47c.31-.44.29-1.34.37-1.85.03-.2.03-1.14.12-1.23l.52.29c-.29-.38-.55-.41-.75-.08-.32.22-.22.22-.34.53-.45,1.11-.31,2.89-.48,4.04l.23-.22s-1.39,1.13-.91.86c.38-.21,2.39,1,2.75.48Z"/>
        <path class="cls-3" d="M161.54,130.53c.47-.73.81-1.71.36-2.58-.66-1.28-1.8-.82-1.93-2.82l-.34,1.98.25-.46c.23-.42.36-1.01.44-1.47-.02.11.2-.75,0-.54.7.29.72.28.06-.04l-.06.04c-.68.75-.76,1.67-.77,2.68-.01.86.33,1.62-.53,2.08.19-.1,2.3,1.51,2.53,1.14Z"/>
        <path class="cls-3" d="M161.78,129.56c.57-.79.84-1.68.57-2.69-.4-1.48-2.06-2.11-2.45-3.61l-.13,1.16.2-.53-.2.3c.16-.05.32-.08.48-.09.11-.01.91-.36.84-.42-.3-.24-.59-.49-.87-.75l-.05.02-.36.29c-.16.13-.26,1.07-.17,1.26.65,1.31,2.79,3.19,1.15,4.88-.11.11.85.36.98.17Z"/>
        <path class="cls-3" d="M161.43,130.13c.48-.74.85-1.77.41-2.66s-2.05-1.17-2.02-2.37l-.71,3.07.35-.33c.32-.31.42-1.22.52-1.6.02-.08.25-1.58.33-1.64q.73.18,0,0c-.21.12-.39.26-.54.44-.85.83-.51,3.3-1.76,3.94.37-.19,3.1,1.65,3.43,1.14Z"/>
        <path class="cls-3" d="M161.5,129.82c1.8-2.64-1.25-3.55-1.64-5.89l-.18,1.87.23-.54c.11-.25.28-1.73.26-1.7.69.48.71.47.05-.04l-.05.04-.34.31c-.28.26-.31,1.6-.23,1.92.23.96,1.38,2.85.2,3.64.16-.11,1.46.74,1.71.38Z"/>
        <path class="cls-3" d="M162.02,129.5c.59-.82.88-1.77.56-2.82-.46-1.48-2.13-2.08-2.54-3.59l-.25,1.02.49-1.02-.52.74c.21-.01.42-.01.64,0,.09,0,.97-.24.81-.37-.29-.22-.58-.45-.85-.7h-.05c-.12.1-.24.2-.35.3-.15.12-.4.93-.31,1.1.72,1.4,3.14,3.28,1.43,5.19-.11.12.81.33.94.14Z"/>
        <path class="cls-3" d="M161.31,130.3c.47-.73.84-1.73.4-2.61-.52-1.03-1.91-1.01-1.93-2.49l-.4,2.46.31-.39c.28-.35.3-1.12.39-1.55.03-.17.07-.97.14-1.03.6.2.69.22.26.08-.31-.18-.55-.07-.73.35-.1.15-.1.3-.16.47-.37,1.06-.07,2.95-1.12,3.55.24-.14,2.57,1.56,2.84,1.15Z"/>
      </g>
      <g>
        <path class="cls-3" d="M158.04,128.71l-.99.35.94-.19c-1.65-.54-.78-2.83-.46-3.97.64-2.26.14-.49.06-2.01-.04-.69.74-1.29,1.22-1.72.65-.58,1.39-1.17,1.43-2.09.03-.66-.21-1.04-.64-1.57-.84-1.03-1.57-1.37-1.79-2.81l-.24,1.08.59-1.31s.33-.94.06-.54c-.4.61-.79,1.16-.79,1.92,0,.91.65,1.56,1.17,2.23.55.55.79,1.25.72,2.1-.71.43-1.37.91-1.98,1.46-.13.24-.12.56-.14.83-.05,1.19.19,1.3-.27,3.12-.33,1.28-.91,2.47.05,3.57.13.15.85-.07.98-.15l.34-.21c.27-.17-.16-.11-.23-.09Z"/>
        <path class="cls-3" d="M157.28,129.66l-.32-3.68.61-1.06s.03-.05.04-.08c.02-.05.37-.95.37-.99l-.25-.61c.09-1.11.57-1.83,1.44-2.17.62-.36,1.18-.71,1.3-1.45s.2-.33-.33-1.04c-.82-1.1-2.58-3.34-1.84-4.3.09-.12-.11-.17-.2-.06-.54.71-.93.89-.6,1.87.12.36,1.42,1.98.93,1.04.49.48.52,1.16.09,2.04.65,1.34.42,2.12-.7,2.35-.23.16-.5.34-.59.61-.23.7.16.59.32,1.22l-.65,2.5c-.48.86-.78,1.79-.88,2.76.02.59.18,1.4.87,1.43.17,0,.66-.38.39-.37Z"/>
        <path class="cls-3" d="M157.96,128.52l-.52.19,3.16-.49-3.49-1.55,2.47,1.59c-.52-1.34-1.06-2.68-1.64-3.99-.36-.68-.63-1.4-.81-2.15l-.1,3.24,1.34-3.88-1.26,2.67c.42-.7,2.66-3.39,2.58-4.91-.09-1.81-2.15-2.3-2.32-4.26l-.92,3.28.54-1.19c.34-.76.61-1.6.85-2.4.01-.04.26-.84.07-.58-.81,1.13-1.45,2.73-1.54,4.15-.05.7.12,1.17.45,1.75.63,1.09.85,1.95.6,3.22l1.73-2.63c-.7.54-1.42.85-2.06,1.45-.26.24-.14,1.45-.15,1.7-.01.39-.18,1.32.04,1.71.43.73.96,1.25,1.53,1.89l-.64-3.13c-.5,1.43-1.67,3.22-.51,4.57.21.24,3.06-.25,3.23-.54l.26-.45c.04-.06-1.2.24-.89.16-.67.17-1.36.35-2.02.59Z"/>
        <path class="cls-3" d="M157.96,128.76l-.7.28,2.31-.54-2.2.13h1.84c-1.4-.66-1.24-2.67-1.62-3.87-.23-.73-.63-1.62-.64-2.38l-.22,1.94.64-2.05-.53,1.44c.78-1.11,2.39-2.33,2.76-3.69.16-.57,0-1.05-.28-1.52-.74-1.21-1.74-1.53-1.95-3.23l-.45,2.16.43-1.09c.17-.42.42-1.82.51-1.96-.61.89-.96,1.74-1.03,2.84-.04.69.22,1.35.55,1.94.65,1.15.9,1.68.27,3.18l1.34-1.54c-1.72,1.3-1.06.49-2.12,1.32-.31.24-.32,1.86-.25,2.18.24,1.06.74,2.01,1.36,2.9l-.51-1.8c-.48,1.29-1.42,2.5-.49,3.76.16.22,2.48-.39,2.65-.65l.27-.42c-.1.16-1.78.59-1.96.66Z"/>
        <path class="cls-3" d="M157.82,128.63l-.87.17.55-.05c-2.19-1.36.61-3.99.47-5.53-.02-.26-.28-.54-.27-.77.02-.86,1.19-1.63,1.67-2.11s.92-.92.97-1.63c.04-.67-.23-1.05-.68-1.58l-.98-.92c-.66-.48-.95-1.12-.88-1.92l-.27.99.63-1.26s.32-.86.07-.5c-.63.92-1.12,1.65-.61,2.76.43.62.92,1.2,1.47,1.73-.06,1.3-.53,2.3-1.43,3-.21.49-.44.29-.38,1.05.01.18.05.34.07.52.08.13.17.27.25.4.06.8-.18,1.51-.7,2.13-.33.69-.77,1.77-.7,2.59.09.94.16.79.93,1.24.2.11.78-.28.69-.3Z"/>
        <path class="cls-3" d="M157.8,128.39l-.87-.23,2.67.28-2.14-1.56,1.49,1.29c-.44-1.39-.85-2.78-1.23-4.19-.29-.64-.52-1.31-.69-2l-.23,2.73.64-2.74-.59,2.09c-.25.47,2.64-3.76,2.82-4.6.17-.78-.04-1.45-.63-2.01-.92-.69-1.49-1.62-1.69-2.79l-.71,3.07.5-1.18c.29-.69.54-1.49.69-2.22,0-.04.21-.78.04-.54-.79,1.1-1.2,2.41-1.31,3.79-.05.61.09,1.04.32,1.56.61,1.37,1.16,1.71.62,3.5l1.58-2.33c-.8.33-1.5.78-2.13,1.36-.34.28-.39,2.73-.26,3.06.37.97.96,1.79,1.68,2.53l-.76-2.52c-.56,1.32-1.53,2.66-.42,3.91.21.24,2.63,0,2.81-.27l.28-.42c-.11.17-2.26.38-2.51.47Z"/>
        <path class="cls-3" d="M157.42,129.36l-.38-.44,2.13-.23c-1.32-.63-1.13-2.43-1.5-3.63-.23-.75-.63-1.65-.64-2.42l-.26,1.62.66-1.79-.54,1.2c-.21.26,2.55-2.53,2.81-3.4.19-.76,0-1.41-.58-1.96-.89-.67-1.44-1.57-1.63-2.71l-.39,1.71.49-1.21c.09-.22.41-1.41.39-1.39-.53.79-.97,1.58-1.03,2.56-.04.68.24,1.33.57,1.91.65,1.16.92,1.68.24,3.17l1.34-1.28c-.79.32-1.5.77-2.11,1.35-.28.24-.36,1.5-.3,1.82.23,1.1.71,2.1,1.33,3.04l-.43-1.55c-.44,1.3-1.35,2.45-.49,3.74.14.2,2.35-.63,2.52-.89l.23-.35s-2.08,1.04-2.42,1.11Z"/>
        <path class="cls-3" d="M157.1,128.37l-.31.1h1.04c-1.71-.59-.3-3.7-.37-4.89-.04-.7-.2-1.21-.49-1.9l.06,1.29c.09-1.3,1.76-2.37,2.49-3.45.39-.57.6-.76.41-1.6-.07-.41-.29-.76-.65-1.05-.96-.69-1.56-1.63-1.79-2.82l-.19,1.62.38-1.04c.09-.26.28-1.39.3-1.42-.54.79-.82,1.34-.78,2.31.08,1.99,2.66,2.73,1.37,5.04l.71-.87c-1.05.71-2.33.72-2.42,2.12-.05.87.16,1.48.42,2.31l.05-1c-.29,1.72-2.03,3.84-.64,5.48.11.13,1.01.08,1.14-.02l.3-.25c.09-.08-.91.01-1.04.05Z"/>
        <path class="cls-3" d="M158.47,128.58l-1.02.42,3.06-.84-3.31-.29,2.74.39-2.12-1.03,1.83,1.01c-.49-1.93-2.2-3.68-2.47-5.68l-.08,2.92,1.36-3.87-1.19,2.46c.52-.8,2.5-3,2.41-4.46-.11-1.78-2.13-2.25-2.31-4.2l-.95,2.94.54-1.15c.32-.69.65-1.43.87-2.16,0-.03.25-.78.08-.53-.75,1.06-1.45,2.49-1.57,3.82-.06.69.13,1.17.46,1.73.64,1.1.86,1.97.63,3.26l1.72-2.37c-.79.37-1.46.88-2.01,1.53-.34.35-.34,2.67-.08,3.08.44.71.98,1.21,1.54,1.83l-.63-2.8c-.51,1.41-1.67,3.1-.59,4.47.17.22,3.06-.58,3.23-.88l.25-.45c-.11.2-2.18.77-2.39.85Z"/>
        <path class="cls-3" d="M157.33,128.59l-.44.16,1.91-.2-1.92-.78,1.28.63c-.85-1.2-.43-3.23-.72-4.5-.13-.57-.33-1.08-.55-1.62l.02,1.42.04-1.63-.14,1.46c.5-1.33,1.77-2.33,2.53-3.51.36-.55.56-.76.37-1.58-.38-1.67-2.06-1.86-2.32-3.82l-.3,2.03.4-1.08c.14-.36.33-1.71.39-1.8-.6.88-.88,1.61-.88,2.7,0,.72.29,1.36.66,1.95.7,1.1.91,1.96.33,3.21l1.08-1.38c-.89.65-1.41.71-2.18,1.28-.29.21-.24,1.73-.18,2.01.11.66.29,1.3.54,1.92l.03-1.55c-.27,1.46-1.57,3.5-.45,4.91.17.22,1.85,0,2.02-.21l.24-.32c.04-.05-1.54.24-1.77.32Z"/>
        <path class="cls-3" d="M157.18,128.31l-.45.11.75.02c-1.73-.98.15-3.81.19-5.07.03-.68-.25-1.24-.52-1.85l.08,1.14c.08-1.58,2.31-2.34,2.82-3.77.13-.35.21-.76.08-1.13-.57-1.59-2.19-1.91-2.48-3.85l-.2,1.41.44-1.13c.06-.15.3-1.18.25-1.12-.51.73-.8,1.19-.82,2.09-.06,2.01,2.84,2.86,1.47,5.15l.68-.79c-1.03.66-2.36.74-2.43,2.11-.04.81.19,1.31.48,2.07v-.81c-.42,1.79-2.28,3.91-.86,5.66.11.13.69.06.82-.01l.24-.14c.31-.18-.5-.09-.55-.08Z"/>
        <path class="cls-3" d="M157.44,129.16l-.58-.38,2.84-.31c-1.21-.49-1.56-2.78-1.86-3.46-.32-.73-.79-1.58-.87-2.37l-.15,2.35.65-2.69-.63,2.02c.49-.87,2.76-3,2.69-4.57-.08-1.76-2.05-2.28-2.24-4.19l-.65,2.38.5-1.11c.22-.49.55-1.98.67-2.17-.64.93-1.18,1.99-1.24,3.15-.04.63.09.99.32,1.51.61,1.4,1.16,1.73.59,3.54l1.5-1.8c-.71.56-1.42.87-2.04,1.5-.28.28-.33,2.11-.2,2.41.42.92.23.61.86,1.4l-.25-2.3c-.08,1.37-.31,2.71-.69,4.02-.01.47.14.86.46,1.18.15.21,2.86-.64,3.04-.93l.27-.43c-.08.12-1,.34-1.2.42-.55.23-1.2.7-1.77.82Z"/>
      </g>
    </g>
    <g id="smoke2">
      <g>
        <path class="cls-3" d="M160.29,121.85l-.16-.39.1,1.22c.21-.86,1.45-1.02,2.11-1.41.48-.28.66-.52,1-1v-.05c-.38-.58-.75-1.17-1.09-1.77l-.16,1.11s2.04-2.8,1.59-2.58c-.27.13-.78.57-.96.73-.37.34-.61.75-.71,1.31-.12.68.45,1.73.04,2.28l.77-.54c-.98.25-2-.02-2.78.7-.12.11-.02,1.11.1,1.22l.27.26c.09.09-.08-.98-.13-1.1Z"/>
        <path class="cls-3" d="M160.17,122.38c-.35-1.2,2.56-.87,2.92-1.03.21-.09.2-.13.51-.38.04-.03.08-.07.05-.12-.36-.54-.5-1.15-.43-1.83-.51-.9-.34-1.48.5-1.74.15-.09-.15-.2-.26-.12-.36.32-.77.55-1.22.69-.02.01-.11.06-.11.1.01,2.64-.05-.78.69,2.14l.38.36c-.52.7-1.2.97-2.03.82-.77.12-1.43.32-1.19,1.16.05.16.23.1.18-.06Z"/>
        <path class="cls-3" d="M160.31,122.33l-.21-.62.6,3.63,1.94-4.58c.07-.15.02-.28-.15-.4-.4-.77-.68-.78-.87-1.75l-1.26,3.28c1.1-1.38,2.08-2.85,2.91-4.42.09-.1.14-.22.15-.35-1.14.63-1.46.68-2.02,1.81-.33.67-.59,1.4-.85,2.1-.16.42-.42,1.06-.39,1.52.02.33.28.92.38,1.25l2.01-2.66c-.94.2-1.8-.23-2.52.5-.22.22.21,1.71.24,1.87.05.27.11,1.62.42,1.84l.38.28s-.25-1.33-.17-1c-.18-.76-.35-1.54-.61-2.29Z"/>
        <path class="cls-3" d="M160.16,122.49l-.2-.5.5,2.3-.07-2.09v1.73c.19-.74.39-1.47.59-2.21l-.61,1.79s2.13-1.73,2.05-2.69l-.27-.62c-.39-.33-.58-.76-.57-1.28l-.83,2.07c.64-.56,1.16-1.22,1.56-1.98.38-.47.71-.97,1-1.5.06-.03-.04-.07-.14,0-.26.22-.41.55-.67.77-.98.82.06.1-.45-.07-.36-.12-1.15,2.02-1.21,2.2-.32.94-.2,1.41-.17,2.37l1.55-1.43c-1.02.38-1.58-.17-2.32.58-.23.23.26,2.24.52,2.43l.36.26c-.19-.14-.51-1.87-.62-2.13Z"/>
        <path class="cls-3" d="M160.28,121.56l-.12-.34.06,1.09c.3-1.14,1.56-1.01,2.35-1.48.39-.23.57-.47.87-.85.04-.04.05-.08.03-.12-.4-.6-.78-1.2-1.16-1.81l-.11,1.01c.57-.81,1.12-1.63,1.64-2.46v-.05c-.13.05-.13.02-.3.13-.64.41-1.12.66-1.36,1.45-.07.22-.12.5-.12.73,0,.36.34.86.34,1.08-.02.77-.48.54-1.1.6-.87.09-.74.06-1.26.59-.13.14-.01,1.05.1,1.19l.25.32c.05.07-.05-.93-.11-1.08Z"/>
        <path class="cls-3" d="M160.21,121.97l-.2-.61.59,3.35-.12-2.88-.02,2.59,2.14-4c.06-.15.01-.28-.14-.41-.35-.75-.66-.85-.84-1.76l-1.08,3.06c.99-1.13,1.68-2.42,2.49-3.71-.1.16.61-.94.31-.71-1.11.83-1.27.46-1.91,1.67-.32.6-.52,1.32-.74,1.96-.12.35-.39,1.07-.37,1.43.02.32.26.9.32,1.24l1.86-2.35c-.95.21-1.8-.26-2.55.44-.27.26.31,3.29.63,3.54l.37.28s-.23-1.27-.15-.95c-.18-.73-.35-1.47-.58-2.18Z"/>
        <path class="cls-3" d="M160.25,122.77l-.2-.46.38,1.88v-1.76c-.02.47-.04.95-.07,1.42l.66-1.85-.64,1.46c.08-.09,2.18-1.39,2.12-2.36l-.26-.6c-.39-.32-.57-.73-.55-1.24l-.79,1.77c.6-.53,1.1-1.14,1.52-1.84.36-.43.69-.88.98-1.36.04-.01-.03-.08-.13,0-.25.17-.46.44-.66.66-.16.16-.31.33-.45.5-.11.19-.29.26-.54.23-.97.86-.8,2.44-.85,3.54l1.52-1.14c-.87.12-1.69.02-2.28.65-.21.22.16,1.81.4,1.98l.29.21s-.33-1.47-.43-1.69Z"/>
        <path class="cls-3" d="M160.03,121.3l-.12-.34.23,1.77c.11-1.06,1.12-1.26,1.82-1.83.47-.39.69-.72,1.02-1.26v-.06c-.37-.6-.72-1.21-1.07-1.82l-.2,1.61c.38-.63,1.58-2.94,1.73-3.06-.15.11-.25.26-.37.39-.11.13-.22.27-.32.41-.08.25-.17.27-.28.05-.05-.15-.11-.19-.19-.11l-.46.69c-.1.24-.12.55-.15.8-.09.75.33,1.8-.04,2.47l.93-.86c-1.07.33-1.93-.11-2.76.6-.2.17.11,1.84.25,1.98l.31.31s-.25-1.49-.34-1.75Z"/>
        <path class="cls-3" d="M160.37,122.75l-.22-.58.55,3.18,1.89-4.22c.07-.14.02-.27-.15-.39-.41-.77-.67-.72-.85-1.71l-1.24,2.94c.62-.79,1.2-1.6,1.73-2.45.47-.62.9-1.27,1.3-1.93.22-.12-.33.18-.26.13-.46.27-.63,1.03-1.07,1.33-.43.63-.41.36.07-.81-.15.12-.27.27-.35.45-.62.87-1.14,1.97-1.44,2.99-.27.9-.05,1.32.19,2.18l1.99-2.38c-.92.23-1.76-.16-2.44.6-.25.28.29,3.04.61,3.26l.38.27c.06.04-.22-1.18-.15-.88-.16-.67-.32-1.36-.56-2Z"/>
        <path class="cls-3" d="M160.05,121.86l-.19-.51.43,2.28v-1.51c0,.38-.02.76-.04,1.13.38-1.1,1.57-1.5,2.1-2.45.59-1.06-.41-1.41-.67-2.51l-.56,1.98c.8-.86,1.5-2.84,2.23-3.41-.17.13-.22.2-.39.38l-.28.38c-.16.46-.29.52-.39.17-.02-.21-.06-.27-.14-.19-.23.18-.41.4-.55.67-.13.23-.18.49-.26.73-.3,1.02-.17,1.93-.37,2.94l1.32-1.2c-1.04.38-1.7-.16-2.49.55-.23.21.21,2.21.46,2.41l.34.27c-.19-.15-.45-1.84-.55-2.12Z"/>
        <path class="cls-3" d="M160.17,121.21l-.16-.48.21,1.81c.18-1.1,1.28-1.28,2.01-1.86.46-.36.66-.67.98-1.19v-.06c-.38-.59-.75-1.19-1.11-1.8l-.21,1.51c.36-.63,1.57-2.86,1.75-2.98-.15.1-.25.23-.37.36-.11.12-.22.25-.33.38-.06.21-.16.24-.28.09-.06-.11-.13-.13-.19-.06l-.46.69c-.1.23-.12.5-.16.75-.1.69.4,1.82.06,2.41l.87-.78c-1.07.3-2-.02-2.83.69-.2.17.03,1.71.17,1.86l.28.31s-.15-1.39-.24-1.65Z"/>
        <path class="cls-3" d="M160.24,122.82l-.22-.52.59,2.5-.15-2.25.05,1.89,1.9-3.21.02-.08c-.42-.76-.79-1.01-.93-1.88l-.98,2.29c.61-.67,1.15-1.39,1.63-2.16.42-.51.79-1.06,1.12-1.63.17-.08-.27.11-.22.09-.38.18-.51.87-.87,1.04-.29.45-.33.29-.13-.47-.15.1-.27.24-.35.42-.58.66-.95,1.64-1.21,2.47s-.03,1.25.13,2.08l1.65-1.76c-.88.28-1.63-.15-2.3.6-.23.26.33,2.43.62,2.64l.37.27c.06.04-.23-.98-.15-.71-.16-.54-.34-1.08-.56-1.6Z"/>
      </g>
      <g>
        <path class="cls-3" d="M156.7,123.06c-.05-.13,2.16-1.5,2.68-1.92.05-.03.07-.07.07-.13-.2-.7-.69-.72-1.36-.97-.08-.03-.32,1.02-.11,1.08.28.08.68.18.25.62l.8-.48c-1.28.2-2.04.12-2.6,1.33-.1.22-.06,1.05.1,1.24l.27.32c.05.07-.04-.96-.1-1.11Z"/>
        <path class="cls-3" d="M156.59,123.59c-.2-.69,2.1-1.51,3.1-1.9.02,0,.09-.04.09-.07-.07-.67-.56-.67-1.16-.9-.14-.05-.19.17-.07.21,1.09.36-2.46,1.63-1.56.99-.21.15-.37.38-.49.61-.27.48-.23.62-.08,1.1.05.16.23.11.18-.05Z"/>
        <path class="cls-3" d="M156.7,123.54l-.24-.69.57,3.53.04-4.46-.41,3.55c.72-1.3,1.44-2.6,2.16-3.9.06-.12.03-.24-.1-.34-.28-.46-.82-.72-1.27-1.02-.03-.02-1.47,3.26-1.27,3.32.4.12.34.63.32.95l2.11-2.72c-1.13.02-1.75-.13-2.22,1-.19.45.14,1.47.21,1.88.05.34.08,1.55.39,1.85l.38.36s-.21-1.32-.14-1c-.16-.76-.3-1.56-.55-2.3Z"/>
        <path class="cls-3" d="M156.55,123.7l-.23-.57.46,2.11-.22-2.42.08,2.15.97-2.64-1,1.75c-1.03,1.21,1.94-2.01,2-2.45.09-.61-.86-1-1.23-1.25-.04-.03-1.05,2-.83,2.1.34.15.27.57.16.95l1.56-1.45c-1.09.18-1.63.1-2.03,1.15-.13.34.23,2.08.52,2.36l.29.29c.18.18,0-.38,0-.42-.02-.52-.32-1.19-.51-1.68Z"/>
        <path class="cls-3" d="M156.7,122.77s2.14-1.47,2.72-1.89c.06-.04.19-.13.17-.22-.18-.74-.65-.71-1.36-.96-.05-.02-.19.95.03,1.02.79.24-1.25.56-1.16.5-.29.19-.59.71-.67,1.04-.12.58.04,1.12.35,1.59.03.05-.02-.91-.08-1.09Z"/>
        <path class="cls-3" d="M156.61,123.17l-.23-.68.55,3.37.93-4.3-1.23,2.87,2.14-3.19c.05-.12.03-.24-.08-.35-.25-.49-.79-.75-1.25-1.06-.08-.06-1.27,3.07-1.15,3.08.45.06.32.67.28.96l1.98-2.42c-1.13.02-1.73-.18-2.24.96-.19.42.13,1.41.2,1.79.06.35.07,1.45.38,1.76l.37.37s-.2-1.26-.13-.96c-.16-.73-.3-1.48-.53-2.19Z"/>
        <path class="cls-3" d="M156.65,123.99l-.23-.53.35,1.88.18-2.59-.4,1.75.95-1.59-.81,1.16c-1.24,1.23,1.96-1.79,2.02-2.11.11-.66-.78-.96-1.21-1.22-.06-.04-.96,1.63-.76,1.76.31.19.26.56.11.96l1.5-1.18c-1.14.2-1.63.14-2.02,1.2-.11.3.12,1.66.35,1.88l.34.33s-.27-1.43-.38-1.7Z"/>
        <path class="cls-3" d="M156.44,122.51l-.19-.56.28,1.77v-1.77c-.03.48-.05.96-.07,1.43.17-.8.97-1.35,1.53-1.82.28-.24,1.01-.84,1.05-.99.23-.82-.69-.98-1.31-1.24-.04-.02-.33,1.54-.09,1.56.32.04.54.14.16.63l.88-.8c-1.25.21-1.97.05-2.52,1.24-.14.3.07,1.67.28,1.93l.3.38s-.19-1.45-.3-1.76Z"/>
        <path class="cls-3" d="M156.76,123.96l.33-1.59-.42,3.15,2.11-3.59c.06-.12.03-.23-.1-.33-.28-.44-.81-.69-1.25-.97-.04-.03-1.44,2.89-1.23,2.97.39.15.34.63.32.96l2.08-2.43c-1.1.08-1.75.03-2.13,1.09-.16.43.11,1.25.18,1.65.05.31.08,1.35.37,1.62l.38.35s-.19-1.18-.12-.88c-.15-.67-.27-1.37-.51-2.01Z"/>
        <path class="cls-3" d="M156.46,123.07l-.21-.58.41,2.09-.12-2v1.72c.38-.87.75-1.74,1.12-2.61l-.88,1.61c-1.03,1.13,1.93-1.89,2.01-2.26.15-.73-.82-.99-1.29-1.24-.07-.04-.7,1.97-.52,2,.37.06.3.41.11.84l1.32-1.29c-1.14.18-1.78.07-2.25,1.16-.14.33.17,2.02.41,2.29l.33.36c.17.18.02-.38.02-.41-.02-.52-.28-1.18-.46-1.67Z"/>
        <path class="cls-3" d="M156.58,122.41l-.19-.56.21,1.66.05-1.7-.1,1.34c.3-1.15,1.68-1.85,2.54-2.61.05-.04.25-.18.22-.29-.18-.75-.68-.77-1.38-1.05-.05-.02-.34,1.39-.1,1.43.31.06.66.13.21.61l.84-.71c-1.36.19-1.98.04-2.57,1.32-.14.3,0,1.55.2,1.82l.28.39s-.11-1.36-.21-1.66Z"/>
        <path class="cls-3" d="M156.63,124.03l-.24-.6.54,2.51v-3.21c-.11.78-.22,1.56-.33,2.34l1.06-2.44-1.04,2.01c.7-.91,1.34-1.7,1.96-2.6l.02-.08c-.31-.64-.72-.83-1.3-1.22-.07-.04-1.18,2.31-1,2.38.54.19.21.98.24,1.48l1.18-2.24c-.98.1-1.12.25-1.41,1.1-.12.36.28,2.26.6,2.57l.31.29c.19.18,0-.4,0-.45-.08-.6-.35-1.27-.57-1.83Z"/>
      </g>
      <g>
        <path class="cls-3" d="M154.97,128.24c2.76,1.16,3.58-3.88,4.97-5.14.39-.35,1.09-.98,1.23-1.51l-.17-.95c-.94-1.16-1.31-2.48-1.13-3.95l-.47.86c.06-.07,1.97-1.64,2.34-2.16.6-.85.22-1.41-.05-2.27.01.04-.99.68-.93.98.36,2.06-.39,1.66-1.21,2.86-.53.77-.37,1.7-.06,2.55.15.43.51.86.62,1.3.32,1.32-.87,1.91-1.57,2.77-.54.66-1.86,4.68-3.15,3.43-.02-.02-.64,1.13-.41,1.23Z"/>
        <path class="cls-3" d="M154.81,129.2c.83.37,1.23.37,2.06-.05s1.42-1.86,1.81-2.68l.61-1.36c.5-.65,1-1.3,1.48-1.96.1-.17.56-.88.6-1.07.01-.07-.24-.96-.26-1.01-.78-.78-.84-1.7-.19-2.77-.31-1.1-.07-1.82.72-2.15.04-.08.34-.15.43-.28.47-.65,0-1.61-.2-2.18-.06-.17-.33-.01-.29.09,1.15,3.53-2.4,1.71-2.1,4.24.32,2.78,2.19,2.08.29,5.9-.51.75-.96,1.54-1.35,2.37-.94,2.29-2.04,2.94-3.31,1.95-.08-.05-.47.89-.29.97Z"/>
        <path class="cls-3" d="M155.03,127.4c1.27.53,1.95-.03,2.53-1.15.26-.77.46-1.56.62-2.36.06-.56.33-.96.8-1.17.46-.54.94-.6,1.02-1.45,0-.47-.11-.92-.36-1.34-.52-.87-.59-1.8-.23-2.79l-1.08,2.77,1.53-3.13-1.48,2.53c2.06-2.7,3.72-3.24,2.68-6.1-.01-.04-1.26,1.29-1.23,1.26-.1.12-1.17,1.1-1.09,1.38.45.97.33,1.92-.36,2.85-.23.7-.47,1.4-.71,2.1-.11.38-.18,1.29-.34,1.59l.24-.23-1.79.51-.08.04c.35.65.75,1.2.77,1.98l.04-.32-.25.08c.07.22-1.57,2.8-1.23,2.95Z"/>
        <path class="cls-3" d="M154.8,128.02c1.88.79,2.58-.95,3.04-2.51.12-1.12.67-2,1.66-2.65.14-.13.27-.28.39-.43.7-.79.15-1.23-.19-2.13.59-1.5,1.1-3.03,1.53-4.58.33-.75.27-1.47-.18-2.16.07.21-1.67,1.26-1.57,1.75.35,1.69-.8,3.12-1.11,4.67-.07.34-.1.71-.1,1.05.28.59.18,1.06-.32,1.41-.29.48-.72.77-1.29.88l-.05.04c-.05.47.04,1-.11,1.45,0-.02-.46,1.05-.61.56.06.2-1.41,2.5-1.08,2.64Z"/>
        <path class="cls-3" d="M154.91,128.12c.87.39.98.58,2-.05s1.57-2.15,2.02-3.15c.25-.63.58-1.23.98-1.79.6-.51,1.06-1.13,1.37-1.86.15-.31.09-.65-.19-1.01-.98-1.18-1.39-2.52-1.22-4.03l-.49.68c.33-.32,2.08-1.32,2.47-1.84.62-.84.21-1.48-.05-2.33,0,0-.83.6-.79.81.51,2.36-.77,1.79-1.53,2.96-.48.73-.27,1.6.06,2.39.13.31.36.79.53,1.08.49.36.59.82.29,1.37.04.5-.13.92-.49,1.25-.68.88-1.09,1.85-1.61,2.82l-.71,1.19c-.76,1.22-1.56,1.49-2.38.79-.11-.06-.42.64-.26.71Z"/>
        <path class="cls-3" d="M154.97,127.26c1.14.5,1.92.06,2.5-1.09.22-.57.4-1.16.54-1.76.13-.86.61-1.55,1.42-2.05.24-.27.61-.5.72-.83l-.06-.92c-.55-1.19-.76-2.45-.63-3.8l-.82,2.53c.59-1.32,2.25-2.77,2.66-4.14.29-.96.15-1.25-.2-2.27-.01-.04-1.09,1.18-1.07,1.15-.11.13-.99,1-.92,1.27.4.87.35,1.75-.14,2.64l1.67-2.23c-1.6.94-1.68,1.86-2.34,3.83-.44,1.31-.09,2.77-1.99,3.39l-.06.05c.03.27.08.54.15.8.16.42.04.8-.37,1.15.05.12-1.36,2.14-1.06,2.27Z"/>
        <path class="cls-3" d="M154.87,128.44c1.95.81,2.66-1.03,3.11-2.63.1-.73.34-1.41.74-2.03.33-.21.65-.43.96-.66.75-.42.93-.99.54-1.71-1-1.37-.86-2.91.42-4.61.87-1.14,1.04-1.36.49-2.91.05.14-1.66,1.11-1.58,1.54.36,1.88-.8,2.83-1.15,4.68-.17.94.19,1.71-.42,2.45-.58.7-1.28.52-1.39,1.45.03.39-.01.78-.13,1.16-.12.29-.31.37-.56.25.08.27-1.41,2.87-1.04,3.02Z"/>
        <path class="cls-3" d="M154.64,127.69c.77.36,1.01.64,1.91,0,.76-.54,1.33-1.64,1.71-2.41.49-1.01.88-2,1.65-2.84.36-.39.95-.96,1.01-1.49.04-.32-.08-.65-.2-.95-.63-1.58-1.76-1.98-.55-4,.31-.52,1.07-.76,1.35-1.32.43-.86.17-1.34-.11-2.23.03.11-.92.84-.85,1.14l-.49,2.31.78-.77c-1.28.59-2,1.46-1.87,2.92s1.3,2.43.82,3.96c-.19.61-.99,1.35-1.31,1.94-.5.91-1.58,4.25-3.49,3.07-.12-.08-.48.6-.34.67Z"/>
        <path class="cls-3" d="M155.02,127.83c1.25.51,2.05.05,2.62-1.24.41-.94.31-2.5,1.01-3.32s1.68-.7,1.32-2.13l-.35-.85c-.53-.85-.6-1.76-.23-2.73l-1.14,2.54c1.79-3.3,3.96-3.38,2.79-6.49.11.31-2.5,1.76-2.35,2.37.26,1.07.2,1.68-.14,2.71l-1.16,2.99c-.04.28-.08.57-.14.85l.25-.21-1.74.48-.08.03c.35.64.73,1.18.76,1.94l.03-.36-.24.05c.09.3-1.61,3.24-1.23,3.39Z"/>
        <path class="cls-3" d="M154.73,127.69c1.73.78,2.53-.91,3.08-2.32.19-.73.49-1.41.91-2.04.74-.47,1.34-1.08,1.81-1.82.13-.31.08-.63-.13-.97-1.1-1.6-.84-3.33.77-5.22.39-1.39.44-.91-.02-2.36.07.21-1.33,1.13-1.23,1.6.15.87.02,1.68-.39,2.42l1.12-1.29c-1.42.79-2.09,2.38-1.89,4.02.01.33.08.64.21.94.26.45.19.89-.21,1.3-.6,1.35-.5.25-1.41,1.67-.16.25-1.31,3.56-1.88,2.5.02.03-1.01,1.45-.75,1.57Z"/>
        <path class="cls-3" d="M154.72,127.76c2.26.93,3.26-1.5,4.07-3.26.41-1.01,1-1.9,1.78-2.69.29-.3.48-.65.57-1.03-.06-.31-.13-.62-.21-.93-.98-1.16-1.38-2.48-1.2-3.98l-.47,1.01c.18-.22,2.33-2.07,2.44-2.28.53-.99.23-1.29-.09-2.29.03.09-.91.79-.85,1.07l-.37,2.17.65-.56c-1.51.64-2.28,1.63-1.81,3.32.14.5.38,1.06.68,1.5l.44.48c.11.75-.08,1.37-.56,1.87-.28.55-.71,1.05-1,1.6-.64,1.24-1.58,4.54-3.84,3.51-.14-.06-.36.43-.23.48Z"/>
        <path class="cls-3" d="M154.82,128.15c2.86,1.14,2.6-2.68,3.54-4.23.07-.36.28-.61.62-.74.43-.24.77-.58,1.02-1.01l-.1-.87c-.6-1.1-.79-2.31-.58-3.62l-.84,2.05c1.64-3.13,3.53-3,2.45-5.96.08.21-2.02,1.38-1.9,1.88.47,1.98-.61,2.91-1.11,4.87-.11.41-.07.91-.18,1.3.11.35-.02.59-.39.7-.3.31-.68.45-1.12.44l-.07.03c.14.43.16.88.07,1.33.06.89.02,1.08-.14.56.09.25-1.62,3.12-1.26,3.26Z"/>
      </g>
    </g>
  </g>
</svg>