<?xml version="1.0" encoding="UTF-8"?>
<svg id="lamp-dance" xmlns="http://www.w3.org/2000/svg" viewBox="0 0 486.83 503">
  <defs>
    <style>
      .cls-1 {
        fill: #fefefe;
      }

      .cls-1, .cls-2, .cls-3, .cls-4, .cls-5, .cls-6, .cls-7, .cls-8, .cls-9, .cls-10 {
        stroke-width: 0px;
      }

      .cls-2 {
        fill: #211509;
      }

      .cls-3, .cls-11, .cls-8 {
        fill: #000202;
      }

      .cls-4 {
        fill: #52e158;
      }

      .cls-6 {
        fill: #ba6e2f;
      }

      .cls-7 {
        fill: #020401;
      }

      .cls-11, .cls-12, .cls-13 {
        stroke: #fff;
        stroke-miterlimit: 10;
      }

      .cls-8 {
        opacity: .58;
      }

      .cls-12, .cls-9, .cls-10 {
        fill: #00a9e7;
      }

      .cls-13 {
        fill: #fff;
      }

      .cls-9 {
        opacity: .54;
      }

      .cls-10 {
        opacity: .79;
      }
    </style>
  </defs>
  <ellipse class="cls-5" cx="47.31" cy="473.47" rx="44.16" ry="17.17"/>
  <ellipse class="cls-8" cx="47.31" cy="479.6" rx="47.31" ry="18.4"/>
  <rect class="cls-3" x="16.65" width="7.36" height="473.47" rx="3.68" ry="3.68"/>
  <path class="cls-3" d="M56.26,6.09h8.06c9.62,0,17.44,7.81,17.44,17.44v31.4h-42.93v-31.4c0-9.62,7.81-17.44,17.44-17.44Z" transform="translate(-7.16 34.47) rotate(-30.2)"/>
  <path class="cls-3" d="M76.56,29.72h15.85c16.09,0,29.15,13.06,29.15,29.15v49.71H47.41v-49.71c0-16.09,13.06-29.15,29.15-29.15Z" transform="translate(-23.32 51.88) rotate(-30.2)"/>
  <ellipse class="cls-11" cx="102.74" cy="102.48" rx="41.32" ry="14.27" transform="translate(-39.72 74.86) rotate(-33.95)"/>
  <ellipse class="cls-13" cx="101.34" cy="98.58" rx="10.23" ry="10.43" transform="translate(-15.06 18.34) rotate(-9.63)"/>
  <rect class="cls-5" x="14" y="32.9" width="55.69" height="7.82" transform="translate(-13.86 35.04) rotate(-39.52)"/>
  <ellipse id="inner-circle" class="cls-8" cx="233.31" cy="399.6" rx="37.4" ry="14.54"/>
  <g>
    <path id="leg-work" class="cls-7" d="M239.32,353.25c-1.52,1.75,1.55,3.08,2.98,1.95.9-.7.77-1.66-.15-2.25,1.25-.46,2.56-.67,3.71-1.37,6.22,8.29,13.21,15.98,19.55,24.19.13.81-9.67,9.89-11,11.09-.79.72-6.03,5.48-6.45,5.57-1.46.32-5.99-5.84-5.82-6.5,1.19-1.04,9.86-9.15,9.68-9.87-3.93-2.96-7.91-5.86-11.58-9.14-8.86,8.26-18.01,16.2-27.56,23.65-.67.1-1.44-1.03-2.15-1.56-.5-.38-3.35-2.28-3.37-2.69,7.03-8.68,15.98-15.81,21.01-26,.55-1.11,3.54-8.03,3.52-8.75,2.42,1.03,5,1.54,7.62,1.66Z"/>
    <g>
      <path id="right-legman" class="cls-7" d="M239.46,387.36c.43-.03,1.4.31,1.95.29-.56,1.35,2.96,4.24,3.08,4.74.65,2.68-4.54,5.85-5.38-.88-1.41-1.65-1.45-4.03.34-4.15Z"/>
      <path id="left-legman" class="cls-7" d="M210.07,388.79c3.06,2.13-3.77,5.68-4.18,5.78-1.44.36-3.82.27-3.75-1.76.09-2.45,6.21-3.09,7.92-4.02Z"/>
    </g>
    <g>
      <path class="cls-4" d="M234.14,323.34c.59,2.23,3.38,4.56,5.72,4.11,1.19-.23,1.22-1.89,1.12-2.83,5.66-.19,9.39,1.07,14.08,4.11-1.72.56-2.25,4.68-1.27,6.06-1.71.08-3.43.02-5.13-.29l-.24.24c-1.21,5.55-1.72,11.24-2.54,16.86-1.15.7-2.47.9-3.71,1.37-.85-.54-2.13-.52-2.83.29-2.63-.13-5.2-.63-7.62-1.66-3.37-7.28-2.19-16.82-8.7-21.6,1.85-1.07,2.57-4.31,1.76-6.16,3.12-.33,6.25-.57,9.38-.49Z"/>
      <path class="cls-6" d="M224.75,323.83c.82,1.85.09,5.09-1.76,6.16-3.19-1.83-9.4-6.89-11.92-9.43-.74-.74-8.19-9.3-8.6-9.87-.32-.44-3.65-5.61-2-5.23.32.08,3.76,4.44,4.5,4.89,3.76,2.32,6.84,5.53,10.17,8.41,2.3,1.41,8.49,2.51,9.63,5.08Z"/>
      <path class="cls-6" d="M253.88,335.22c-1.02-1.35-.61-5.49,1.09-6.1,1.71-.61,7.29,1.05,9.38,1.38,1.69.27,9.34,1.33,10.31,1.35,3.18.08,8.31-1.13,8.96-1.15,2.21-.04-3.78,2.6-4.22,2.77-5.94,2.29-12.56,1.24-18.75.95-2.29,0-4.51.62-6.77.79Z"/>
      <g id="head-man">
        <path class="cls-7" d="M243.6,315.21c-1.81.66-3.16.6-4.55-.86l-2.42,3.82c-.65,0-1.75-1.05-1.86-1.07-1.22-.2-.9,1.98.74,2.39.03.05-.19.47-.29.83-2.54-1.66-6.25-7.54-1.26-8.5,1.26-4.1,5.95-1.5,7.23-1.31,1.13.18,2.71-.54,4.06,1.3,1.25,1.71,0,2.78-1.64,3.38Z"/>
        <g>
          <path class="cls-6" d="M243.6,315.21c.58,1.42-.45,1.29-.48,1.62-.02.19,1.43,2.83,1.19,3.32-.74.18-2.38,1.56-1.46,1.67.23,1.76-.25,2.24-2.04,2.11-2.73-.19-4.94-3.22-5.25-3.3-.33-.09.75,2.01,1.04,2.39.96,1.26,2.86,2.27,4.21,1.01-.08.58.19.55.2.59.11.94.08,2.6-1.11,2.84-2.34.47-5.14-1.85-5.74-4.08.31-1.03.77-2,1.06-3.04.1-.36.32-.78.29-.83-1.64-.41-1.96-2.59-.74-2.39.11.02,1.22,1.06,1.86,1.07l2.42-3.82c1.38,1.46,2.74,1.52,4.55.86Z"/>
          <path class="cls-2" d="M240.81,323.92v.1c-1.35,1.26-3.25.25-4.21-1.01-.29-.38-1.37-2.48-1.04-2.39.3.08,2.52,3.1,5.25,3.3Z"/>
          <path class="cls-7" d="M240.92,316.2c.74-.11,1.56-.02,2.1.53-.6.07-1.2-.11-1.81-.04-.22.03-3.12.94-1.17-.19.07-.04.82-.29.88-.3Z"/>
          <path class="cls-7" d="M241.51,316.88c.92-.11,1.97.87-.88.69v-.2c.26-.08.64-.46.88-.49Z"/>
          <path class="cls-1" d="M242.31,320.29c.11-.04.91.06.93.24.1.76-1.5-.03-.93-.24Z"/>
        </g>
      </g>
    </g>
    <ellipse class="cls-8" cx="233.31" cy="399.6" rx="47.31" ry="18.4"/>
    <g>
      <path class="cls-1" d="M242.15,352.96c.92.59,1.04,1.54.15,2.25-1.44,1.13-4.5-.21-2.98-1.95.71-.81,1.98-.84,2.83-.29Z"/>
      <path class="cls-7" d="M240.73,353.06c2.2-.16,2.13,2.35-.2,2.05-1.6-.2-1.31-1.94.2-2.05Z"/>
    </g>
  </g>
  <g id="lamp-color">
    <path class="cls-9" d="M162.15,402.33c49.98,117.56,187.55,1.23,142.36-123.46-18.61-51.36-178.16-164.26-191.09-183.18-.69-1.01-3.82-6.07-7.3-5.64-2.98.37-5.82,4.71-5.14,7.9.81,3.83,6.59,5.4,7.3,5.64,17.99,6.15,31.38,245.83,53.87,298.74Z"/>
    <path class="cls-10" d="M163.53,417.77c73.82,105.16,194.96,29.79,154.76-126.48-20.76-80.7-192.99-168.7-207-188.13-.75-1.04-4.14-6.23-7.9-5.79-3.23.38-6.3,4.84-5.57,8.11.88,3.94,7.14,5.55,7.9,5.79,19.49,6.32,21.37,254.58,57.82,306.5Z"/>
    <ellipse class="cls-12" cx="101.34" cy="98.58" rx="10.49" ry="10.69" transform="translate(-15.06 18.34) rotate(-9.63)"/>
  </g>
</svg>