<?xml version="1.0" encoding="UTF-8"?>
<svg id="pac-man" xmlns="http://www.w3.org/2000/svg" viewBox="0 0 681.77 503">
  <defs>
    <style>
      .cls-1, .cls-2, .cls-3, .cls-4, .cls-5, .cls-6, .cls-7, .cls-8, .cls-9 {
        stroke-width: 0px;
      }

      .cls-2 {
        fill: #29abe2;
      }

      .cls-3 {
        fill: #f0f;
      }

      .cls-4 {
        fill: #ff0;
      }

      .cls-5 {
        fill: red;
      }

      .cls-6 {
        fill: #f7931e;
      }

      .cls-7 {
        fill: #fff;
      }

      .cls-8 {
        fill: lime;
      }

      .cls-9 {
        fill: blue;
      }
    </style>
  </defs>
  <g id="pack-balls">
    <ellipse id="ball1" class="cls-3" cx="290.71" cy="250.5" rx="4" ry="4.5"/>
    <ellipse id="ball2" class="cls-2" cx="303.71" cy="250.5" rx="4" ry="4.5"/>
    <ellipse id="ball3" class="cls-1" cx="315.71" cy="250.5" rx="4" ry="4.5"/>
    <ellipse id="ball4" class="cls-6" cx="326.71" cy="250.5" rx="4" ry="4.5"/>
    <ellipse id="ball5" class="cls-8" cx="339.71" cy="250.5" rx="4" ry="4.5"/>
    <ellipse id="ball6" class="cls-5" cx="351.71" cy="250.5" rx="4" ry="4.5"/>
    <ellipse id="ball7" class="cls-9" cx="363.71" cy="250.5" rx="4" ry="4.5"/>
  </g>
  <ellipse class="cls-7" cx="224.68" cy="251.73" rx="54.15" ry="14.19" transform="translate(-7.06 6.48) rotate(-1.63)"/>
  <path id="pack-open" class="cls-4" d="M183.5,251.29l96.36-27.85c-11.97-41.83-50.48-72.44-96.15-72.44h0c-55.23,0-100,44.77-100,100h0c0,55.23,44.77,100,100,100h0c32.87,0,62.04-15.86,80.26-40.35l-80.47-59.37Z"/>
  <path id="pack-half" class="cls-4" d="M181.3,250.76l99.35-24.39c-10.97-43.32-50.21-75.37-96.94-75.37h0c-55.23,0-100,44.77-100,100h0c0,55.23,44.77,100,100,100h0c52.57,0,95.66-40.56,99.69-92.1l-102.1-8.14Z"/>
  <path id="pack-close" class="cls-4" d="M180.66,251.3l102.56-10.23c-4.98-50.57-47.63-90.07-99.51-90.07h0c-55.23,0-100,44.77-100,100h0c0,55.23,44.77,100,100,100h0c53.14,0,96.59-41.45,99.8-93.77l-102.85-5.93Z"/>
  <g>
    <path class="cls-1" d="M158.25,229.23h-2.29v-8.9h-10.09v8.9h-2.29v-19.51h2.29v8.56h10.09v-8.56h2.29v19.51Z"/>
    <path class="cls-1" d="M171.67,229.56c-2.06,0-3.7-.65-4.93-1.95s-1.84-3.03-1.84-5.18c0-2.34.64-4.17,1.92-5.48,1.28-1.31,3.01-1.97,5.18-1.97s3.7.64,4.86,1.92c1.17,1.28,1.75,3.05,1.75,5.32s-.63,4-1.88,5.34c-1.26,1.34-2.94,2.01-5.05,2.01ZM171.83,216.85c-1.43,0-2.57.49-3.4,1.46-.83.98-1.25,2.32-1.25,4.03s.42,2.95,1.27,3.9c.84.95,1.97,1.43,3.39,1.43s2.55-.47,3.33-1.4,1.16-2.26,1.16-3.99-.39-3.08-1.16-4.03c-.78-.94-1.88-1.42-3.33-1.42Z"/>
    <path class="cls-1" d="M195.91,215.3l-5.55,13.93h-2.19l-5.28-13.93h2.45l3.54,10.12c.26.74.43,1.39.49,1.95h.05c.09-.7.24-1.33.44-1.89l3.7-10.18h2.35Z"/>
    <path class="cls-1" d="M212.12,222.82h-9.83c.04,1.55.45,2.75,1.25,3.59.8.84,1.9,1.27,3.29,1.27,1.57,0,3.01-.52,4.33-1.55v2.09c-1.22.89-2.84,1.33-4.86,1.33s-3.51-.63-4.64-1.9-1.69-3.04-1.69-5.34c0-2.17.61-3.93,1.84-5.3,1.23-1.37,2.75-2.05,4.58-2.05s3.23.59,4.23,1.77c1,1.18,1.5,2.82,1.5,4.91v1.17ZM209.84,220.93c0-1.29-.32-2.29-.93-3.01-.61-.72-1.46-1.07-2.55-1.07s-1.94.38-2.68,1.13c-.73.75-1.19,1.74-1.36,2.95h7.52Z"/>
    <path class="cls-1" d="M225.54,217.56c-.39-.3-.95-.45-1.69-.45-.95,0-1.75.45-2.39,1.35-.64.9-.96,2.12-.96,3.67v7.1h-2.23v-13.93h2.23v2.87h.05c.32-.98.8-1.74,1.46-2.29.65-.55,1.38-.82,2.19-.82.58,0,1.02.06,1.33.19v2.31Z"/>
    <path class="cls-1" d="M149.75,262.53c-.53.29-1.22.44-2.08.44-2.44,0-3.66-1.36-3.66-4.08v-8.24h-2.39v-1.9h2.39v-3.4l2.23-.72v4.12h3.51v1.9h-3.51v7.85c0,.93.16,1.6.48,2s.84.6,1.58.6c.56,0,1.05-.15,1.46-.46v1.9Z"/>
    <path class="cls-1" d="M161.12,262.99c-2.06,0-3.7-.65-4.93-1.95s-1.84-3.03-1.84-5.18c0-2.34.64-4.17,1.92-5.48,1.28-1.31,3.01-1.97,5.18-1.97s3.7.64,4.86,1.92c1.17,1.28,1.75,3.05,1.75,5.32s-.63,4-1.88,5.34c-1.26,1.34-2.94,2.01-5.05,2.01ZM161.28,250.28c-1.43,0-2.57.49-3.4,1.46-.83.98-1.25,2.32-1.25,4.03s.42,2.95,1.27,3.9c.84.95,1.97,1.43,3.39,1.43s2.55-.47,3.33-1.4,1.16-2.26,1.16-3.99-.39-3.08-1.16-4.03c-.78-.94-1.88-1.42-3.33-1.42Z"/>
    <path class="cls-1" d="M145.87,288.72v7.37h-2.29v-19.51h5.36c2.09,0,3.7.51,4.85,1.52,1.15,1.02,1.72,2.45,1.72,4.3s-.64,3.36-1.91,4.54c-1.27,1.18-3,1.77-5.16,1.77h-2.57ZM145.87,278.65v8h2.39c1.58,0,2.78-.36,3.61-1.08.83-.72,1.24-1.74,1.24-3.05,0-2.58-1.52-3.86-4.57-3.86h-2.68Z"/>
    <path class="cls-1" d="M163.9,296.09h-2.23v-20.62h2.23v20.62Z"/>
    <path class="cls-1" d="M181.18,296.09h-2.23v-2.18h-.05c-.97,1.67-2.4,2.5-4.29,2.5-1.39,0-2.47-.37-3.26-1.1-.78-.73-1.18-1.71-1.18-2.92,0-2.6,1.53-4.12,4.6-4.54l4.18-.58c0-2.37-.96-3.55-2.87-3.55-1.68,0-3.19.57-4.54,1.71v-2.29c1.37-.87,2.95-1.31,4.73-1.31,3.27,0,4.91,1.73,4.91,5.2v9.06ZM178.95,289.05l-3.36.46c-1.03.15-1.81.4-2.34.77s-.79,1.02-.79,1.95c0,.68.24,1.24.73,1.67.48.43,1.13.65,1.94.65,1.11,0,2.02-.39,2.74-1.16.72-.78,1.08-1.76,1.08-2.95v-1.39Z"/>
    <path class="cls-1" d="M199.25,282.16l-6.41,16.16c-1.14,2.88-2.75,4.33-4.82,4.33-.58,0-1.07-.06-1.46-.18v-2c.48.16.92.25,1.32.25,1.12,0,1.97-.67,2.53-2.01l1.12-2.64-5.44-13.9h2.48l3.77,10.72c.05.14.14.49.29,1.06h.08c.04-.22.14-.56.27-1.03l3.96-10.75h2.31Z"/>
  </g>
</svg>