<?xml version="1.0" encoding="UTF-8"?>
<svg id="world-car" xmlns="http://www.w3.org/2000/svg" viewBox="0 0 450.16 490.62">
  <defs>
    <style>
      .cls-1 {
        opacity: .85;
      }

      .cls-2 {
        fill: #3affff;
      }

      .cls-2, .cls-3, .cls-4, .cls-5, .cls-6, .cls-7, .cls-8, .cls-9, .cls-10, .cls-11 {
        stroke-width: 0px;
      }

      .cls-12, .cls-13, .cls-14, .cls-15, .cls-16, .cls-17, .cls-18, .cls-19, .cls-20 {
        stroke-miterlimit: 10;
      }

      .cls-12, .cls-13, .cls-4 {
        fill: none;
      }

      .cls-12, .cls-14, .cls-16, .cls-17, .cls-18, .cls-19, .cls-20 {
        stroke: #000;
      }

      .cls-13 {
        stroke: #fff;
      }

      .cls-3, .cls-15 {
        fill: #9af2ff;
      }

      .cls-15 {
        stroke: #90f2ff;
      }

      .cls-16 {
        fill: lime;
      }

      .cls-5 {
        fill: #009245;
      }

      .cls-6, .cls-8 {
        fill: #fff;
      }

      .cls-7 {
        fill: #34f2ff;
      }

      .cls-17, .cls-18, .cls-20 {
        fill: #ff0;
      }

      .cls-17, .cls-20 {
        opacity: .35;
      }

      .cls-8 {
        fill-rule: evenodd;
      }

      .cls-9 {
        fill: #003308;
      }

      .cls-10 {
        fill: #00ffba;
      }

      .cls-19 {
        fill: #c1272d;
      }

      .cls-20 {
        stroke-width: .5px;
      }

      .cls-11 {
        fill: #39b54a;
      }
    </style>
  </defs>
  <circle class="cls-9" cx="236.04" cy="324.62" r="164"/>
  <g id="road">
    <g>
      <g>
        <path class="cls-4" d="M107.72,372.12l-1.88-4.46-1.67-4.54-.83-2.27c-.26-.76-.49-1.54-.73-2.31l-1.43-4.62,21.5-6.09,1.22,3.93c.21.65.39,1.31.61,1.96l.71,1.93,1.41,3.86,1.6,3.78-20.52,8.84Z"/>
        <g>
          <path class="cls-8" d="M117.48,350.89c.71,2.26,1.34,4.55,2.2,6.76l1.21,3.34c.4,1.12.9,2.19,1.35,3.29l-3.44,1.44c-.46-1.13-.98-2.23-1.39-3.38l-1.25-3.44c-.88-2.27-1.54-4.62-2.27-6.95l3.57-1.06Z"/>
          <path class="cls-8" d="M116.05,366.86l-3.44,1.44c-.48-1.18-1.02-2.35-1.46-3.55l-1.31-3.61c-.92-2.39-1.62-4.85-2.38-7.29l3.57-1.06c.74,2.38,1.41,4.78,2.32,7.1l1.28,3.51c.42,1.17.95,2.3,1.42,3.46Z"/>
        </g>
      </g>
      <g>
        <path class="cls-4" d="M129.91,408.27c-4.18-4.91-7.91-10.19-11.41-15.6l18.89-11.94c2.99,4.59,6.14,9.09,9.7,13.26l-17.18,14.29Z"/>
        <g>
          <path class="cls-8" d="M133.23,385.16l1.99,2.94c.67.98,1.31,1.98,2.04,2.91,1.45,1.88,2.79,3.84,4.34,5.63l-2.89,2.35c-1.6-1.84-2.98-3.86-4.46-5.79-.75-.96-1.42-1.98-2.1-2.99l-2.05-3.03,3.13-2.03Z"/>
          <path class="cls-8" d="M136.41,400.87l-2.89,2.35c-1.67-1.93-3.13-4.04-4.68-6.07-.79-1.01-1.49-2.08-2.21-3.14l-2.15-3.18,3.13-2.03,2.09,3.09c.7,1.03,1.38,2.07,2.15,3.06,1.52,1.97,2.93,4.03,4.56,5.91Z"/>
        </g>
      </g>
      <g>
        <path class="cls-4" d="M161.36,436.69c-2.71-1.74-5.27-3.71-7.86-5.62-1.3-.95-2.51-2.02-3.77-3.02-1.24-1.03-2.52-2.02-3.69-3.12l14.77-16.77c1,.94,2.09,1.78,3.14,2.65,1.07.85,2.1,1.77,3.21,2.57,2.21,1.63,4.38,3.31,6.69,4.78l-12.49,18.53Z"/>
        <g>
          <path class="cls-8" d="M158.05,413.59c1.85,1.49,3.64,3.04,5.52,4.48l2.85,2.12,1.43,1.06,1.47,1-2.12,3.07-1.51-1.03-1.47-1.09-2.93-2.18c-1.94-1.48-3.78-3.08-5.68-4.61l2.43-2.82Z"/>
          <path class="cls-8" d="M165.52,427.77l-2.12,3.07-1.59-1.08-1.54-1.14-3.08-2.29c-2.03-1.55-3.97-3.22-5.95-4.83l2.43-2.82c1.94,1.57,3.82,3.2,5.8,4.71l3,2.23,1.5,1.12,1.55,1.05Z"/>
        </g>
      </g>
      <g>
        <path class="cls-4" d="M199.53,455.15c-3.1-.89-6.1-2.1-9.13-3.18-1.5-.58-2.98-1.23-4.47-1.85-1.49-.62-2.98-1.24-4.42-1.96l9.47-20.24c1.22.62,2.49,1.14,3.76,1.67,1.27.52,2.52,1.09,3.8,1.58,2.58.91,5.12,1.95,7.76,2.7l-6.76,21.3Z"/>
        <g>
          <path class="cls-8" d="M189.86,433.91c2.18.93,4.36,1.87,6.55,2.76,2.23.79,4.43,1.69,6.69,2.39l-1.17,3.54c-2.33-.73-4.59-1.65-6.88-2.46-2.26-.91-4.5-1.88-6.74-2.84l1.54-3.39Z"/>
          <path class="cls-8" d="M201.01,445.43l-1.17,3.54c-2.44-.76-4.81-1.73-7.22-2.59-2.37-.95-4.72-1.97-7.07-2.98l1.54-3.39c2.29.98,4.58,1.97,6.89,2.9,2.35.83,4.66,1.77,7.03,2.52Z"/>
        </g>
      </g>
      <g>
        <path class="cls-4" d="M241.38,462.07c-1.61.03-3.22-.11-4.83-.18-1.61-.1-3.22-.14-4.83-.3-3.21-.35-6.43-.59-9.61-1.15l3.35-22.1c2.7.49,5.44.66,8.16.97,1.36.14,2.73.16,4.1.25,1.37.06,2.73.19,4.11.16l-.45,22.34Z"/>
        <g>
          <path class="cls-8" d="M226.1,444.41c2.34.36,4.71.53,7.06.8,2.36.19,4.73.28,7.1.42l-.12,3.72c-2.43-.15-4.87-.24-7.3-.43-2.42-.28-4.85-.45-7.26-.83l.52-3.69Z"/>
          <path class="cls-8" d="M240.05,452.34l-.12,3.72c-2.55-.15-5.11-.25-7.66-.46-2.54-.29-5.09-.48-7.62-.87l.52-3.69c2.46.38,4.95.56,7.42.84,2.48.2,4.97.29,7.46.44Z"/>
        </g>
      </g>
      <g>
        <path class="cls-4" d="M283.45,456.93c-3.12.8-6.24,1.63-9.41,2.21-1.58.3-3.15.68-4.75.91l-4.78.72-2.99-22.15,4.07-.61c1.36-.19,2.69-.53,4.04-.78,2.7-.48,5.35-1.2,8-1.88l5.81,21.58Z"/>
        <g>
          <path class="cls-8" d="M263.83,444.23l3.52-.52,3.49-.7c1.16-.24,2.33-.45,3.48-.71l3.45-.87.93,3.61-3.54.9c-1.19.27-2.39.49-3.58.73l-3.59.72-3.62.53-.54-3.69Z"/>
          <path class="cls-8" d="M279.44,447.92l.93,3.61-3.72.94c-1.25.29-2.5.51-3.76.77l-3.76.75-3.79.56-.54-3.69,3.69-.55,3.66-.73c1.22-.25,2.45-.47,3.66-.75l3.62-.92Z"/>
        </g>
      </g>
      <g>
        <path class="cls-4" d="M322.41,440.14c-5.45,3.46-11.23,6.35-17.08,9.08l-9.11-20.41c4.96-2.32,9.87-4.77,14.5-7.71l11.69,19.05Z"/>
        <g>
          <path class="cls-8" d="M300.01,433.54c4.29-2.01,8.51-4.18,12.56-6.64l1.91,3.2c-4.16,2.53-8.51,4.76-12.92,6.83l-1.56-3.39Z"/>
          <path class="cls-8" d="M316.02,432.65l1.91,3.2c-4.37,2.66-8.93,5-13.56,7.17l-1.56-3.38c4.51-2.11,8.95-4.39,13.2-6.98Z"/>
        </g>
      </g>
      <g>
        <path class="cls-4" d="M355.02,413.03c-4.27,4.83-8.95,9.28-13.82,13.51l-14.51-17c4.13-3.6,8.12-7.38,11.75-11.49l16.58,14.98Z"/>
        <g>
          <path class="cls-8" d="M331.68,413.03c1.73-1.62,3.54-3.16,5.22-4.83l2.51-2.52,1.25-1.26,1.19-1.32,2.74,2.53-1.23,1.36-1.29,1.3-2.58,2.59c-1.73,1.72-3.58,3.31-5.36,4.97l-2.45-2.81Z"/>
          <path class="cls-8" d="M346.78,407.65l2.74,2.53-1.29,1.42-1.35,1.36-2.71,2.72c-1.81,1.8-3.75,3.47-5.63,5.21l-2.45-2.81c1.82-1.7,3.72-3.32,5.48-5.07l2.64-2.65,1.32-1.32,1.25-1.38Z"/>
        </g>
      </g>
      <g>
        <path class="cls-4" d="M378.7,377.87c-1.34,2.94-2.93,5.74-4.45,8.58-.77,1.42-1.64,2.77-2.46,4.16-.84,1.38-1.65,2.77-2.57,4.1l-18.7-12.25c.79-1.12,1.47-2.31,2.18-3.49.69-1.18,1.45-2.33,2.1-3.54,1.29-2.42,2.66-4.8,3.78-7.3l20.12,9.73Z"/>
        <g>
          <path class="cls-8" d="M356.3,384.42c1.21-2.04,2.49-4.04,3.65-6.1l1.69-3.13c.57-1.04,1.14-2.08,1.63-3.16l3.34,1.66c-.51,1.11-1.09,2.18-1.68,3.25l-1.74,3.21c-1.2,2.12-2.51,4.18-3.76,6.27l-3.14-2.01Z"/>
          <path class="cls-8" d="M369.29,375.02l3.34,1.66c-.53,1.16-1.15,2.29-1.76,3.41l-1.83,3.37c-1.26,2.22-2.63,4.39-3.94,6.58l-3.14-2.01c1.28-2.14,2.61-4.24,3.84-6.41l1.78-3.28c.6-1.09,1.19-2.19,1.71-3.32Z"/>
        </g>
      </g>
      <g>
        <polygon class="cls-4" points="391.53 337.45 391.16 339.84 390.67 342.21 389.7 346.95 388.49 351.63 387.89 353.98 387.18 356.29 365.79 349.8 366.4 347.84 366.91 345.85 367.93 341.87 368.76 337.85 369.17 335.84 369.48 333.81 391.53 337.45"/>
        <g>
          <path class="cls-8" d="M371.88,350.05c.65-2.28,1.21-4.58,1.81-6.87.46-2.32,1-4.63,1.41-6.97l3.67.65c-.43,2.4-.97,4.78-1.45,7.16-.62,2.36-1.2,4.73-1.86,7.07l-3.58-1.04Z"/>
          <path class="cls-8" d="M381.71,337.38l3.67.65c-.45,2.52-1.02,5.01-1.52,7.52-.64,2.47-1.25,4.96-1.95,7.42l-3.58-1.04c.68-2.4,1.27-4.82,1.9-7.23.49-2.44,1.05-4.87,1.48-7.32Z"/>
        </g>
      </g>
      <g>
        <path class="cls-4" d="M392.43,295.05c.68,6.4,1.22,12.83,1.1,19.29l-22.35-.16c.11-5.48-.37-10.96-.93-16.42l22.18-2.71Z"/>
        <g>
          <path class="cls-8" d="M377.08,312.69c0-4.74-.31-9.48-.81-14.2l3.7-.41c.52,4.85.83,9.72.84,14.59l-3.73.02Z"/>
          <path class="cls-8" d="M382.93,297.75l3.7-.41c.55,5.08.87,10.19.88,15.3l-3.73.02c0-4.98-.32-9.96-.86-14.91Z"/>
        </g>
      </g>
      <g>
        <path class="cls-4" d="M381.35,254.12l1.88,4.46,1.67,4.54.83,2.27c.26.76.49,1.54.73,2.31l1.43,4.62-21.5,6.09-1.22-3.93c-.21-.65-.39-1.31-.61-1.96l-.71-1.93-1.41-3.86-1.6-3.78,20.52-8.84Z"/>
        <g>
          <path class="cls-8" d="M371.6,275.35c-.71-2.26-1.34-4.55-2.2-6.76l-1.21-3.34c-.4-1.12-.9-2.19-1.35-3.29l3.44-1.44c.46,1.13.98,2.23,1.39,3.38l1.25,3.44c.88,2.27,1.54,4.62,2.27,6.95l-3.57,1.06Z"/>
          <path class="cls-8" d="M373.02,259.38l3.44-1.44c.48,1.18,1.02,2.35,1.46,3.55l1.31,3.61c.92,2.39,1.62,4.85,2.38,7.29l-3.57,1.06c-.74-2.38-1.41-4.78-2.32-7.1l-1.28-3.51c-.42-1.17-.95-2.3-1.42-3.46Z"/>
        </g>
      </g>
      <g>
        <path class="cls-4" d="M359.16,217.97c4.18,4.91,7.91,10.19,11.41,15.6l-18.89,11.94c-2.99-4.59-6.14-9.09-9.7-13.26l17.18-14.29Z"/>
        <g>
          <path class="cls-8" d="M355.84,241.08l-1.99-2.94c-.67-.98-1.31-1.98-2.04-2.91-1.45-1.88-2.79-3.84-4.34-5.63l2.89-2.35c1.6,1.84,2.98,3.86,4.46,5.79.75.96,1.42,1.98,2.1,2.99l2.05,3.03-3.13,2.03Z"/>
          <path class="cls-8" d="M352.67,225.36l2.89-2.35c1.67,1.93,3.13,4.04,4.68,6.07.79,1.01,1.49,2.08,2.21,3.14l2.15,3.18-3.13,2.03-2.09-3.09c-.7-1.03-1.38-2.07-2.15-3.06-1.52-1.97-2.93-4.03-4.56-5.91Z"/>
        </g>
      </g>
      <g>
        <path class="cls-4" d="M327.72,189.55c2.71,1.74,5.27,3.71,7.86,5.62,1.3.95,2.51,2.02,3.77,3.02,1.24,1.03,2.52,2.02,3.69,3.12l-14.77,16.77c-1-.94-2.09-1.78-3.14-2.65-1.07-.85-2.1-1.77-3.21-2.57-2.21-1.63-4.38-3.31-6.69-4.78l12.49-18.53Z"/>
        <g>
          <path class="cls-8" d="M331.02,212.65c-1.85-1.49-3.64-3.04-5.52-4.48l-2.85-2.12-1.43-1.06-1.47-1,2.12-3.07,1.51,1.03,1.47,1.09,2.93,2.18c1.94,1.48,3.78,3.08,5.68,4.61l-2.43,2.82Z"/>
          <path class="cls-8" d="M323.56,198.46l2.12-3.07,1.59,1.08,1.54,1.14,3.08,2.29c2.03,1.55,3.97,3.22,5.95,4.83l-2.43,2.82c-1.94-1.57-3.82-3.2-5.8-4.71l-3-2.23-1.5-1.12-1.55-1.05Z"/>
        </g>
      </g>
      <g>
        <path class="cls-4" d="M289.54,171.09c3.1.89,6.1,2.1,9.13,3.18,1.5.58,2.98,1.23,4.47,1.85,1.49.62,2.98,1.24,4.42,1.96l-9.47,20.24c-1.22-.62-2.49-1.14-3.76-1.67-1.27-.52-2.52-1.09-3.8-1.58-2.58-.91-5.12-1.95-7.76-2.7l6.76-21.3Z"/>
        <g>
          <path class="cls-8" d="M299.21,192.33c-2.18-.93-4.36-1.87-6.55-2.76-2.23-.79-4.43-1.69-6.69-2.39l1.17-3.54c2.33.73,4.59,1.65,6.88,2.46,2.26.91,4.5,1.88,6.74,2.84l-1.54,3.39Z"/>
          <path class="cls-8" d="M288.06,180.81l1.17-3.54c2.44.76,4.81,1.73,7.22,2.59,2.37.95,4.72,1.97,7.07,2.98l-1.54,3.39c-2.29-.98-4.58-1.97-6.89-2.9-2.35-.83-4.66-1.77-7.03-2.52Z"/>
        </g>
      </g>
      <g>
        <path class="cls-4" d="M247.69,164.17c1.61-.03,3.22.11,4.83.18,1.61.1,3.22.14,4.83.3,3.21.35,6.43.59,9.61,1.15l-3.35,22.1c-2.7-.49-5.44-.66-8.16-.97-1.36-.14-2.73-.16-4.1-.25-1.37-.06-2.73-.19-4.11-.16l.45-22.34Z"/>
        <g>
          <path class="cls-8" d="M262.98,181.83c-2.34-.36-4.71-.53-7.06-.8-2.36-.19-4.73-.28-7.1-.42l.12-3.72c2.43.15,4.87.24,7.3.43,2.42.28,4.85.45,7.26.83l-.52,3.69Z"/>
          <path class="cls-8" d="M249.03,173.9l.12-3.72c2.55.15,5.11.25,7.66.46,2.54.29,5.09.48,7.62.87l-.52,3.69c-2.46-.38-4.95-.56-7.42-.84-2.48-.2-4.97-.29-7.46-.44Z"/>
        </g>
      </g>
      <g>
        <path class="cls-4" d="M205.62,169.31c3.12-.8,6.24-1.63,9.41-2.21,1.58-.3,3.15-.68,4.75-.91l4.78-.72,2.99,22.15-4.07.61c-1.36.19-2.69.53-4.04.78-2.7.48-5.35,1.2-8,1.88l-5.81-21.58Z"/>
        <g>
          <path class="cls-8" d="M225.24,182l-3.52.52-3.49.7c-1.16.24-2.33.45-3.48.71l-3.45.87-.93-3.61,3.54-.9c1.19-.27,2.39-.49,3.58-.73l3.59-.72,3.62-.53.54,3.69Z"/>
          <path class="cls-8" d="M209.63,178.31l-.93-3.61,3.72-.94c1.25-.29,2.5-.51,3.76-.77l3.76-.75,3.79-.56.54,3.69-3.69.55-3.66.73c-1.22.25-2.45.47-3.66.75l-3.62.92Z"/>
        </g>
      </g>
      <g>
        <path class="cls-4" d="M166.66,186.1c5.45-3.46,11.23-6.35,17.08-9.08l9.11,20.41c-4.96,2.32-9.87,4.77-14.5,7.71l-11.69-19.05Z"/>
        <g>
          <path class="cls-8" d="M189.06,192.7c-4.29,2.01-8.51,4.18-12.56,6.64l-1.91-3.2c4.16-2.53,8.51-4.76,12.92-6.83l1.56,3.39Z"/>
          <path class="cls-8" d="M173.06,193.59l-1.91-3.2c4.37-2.66,8.93-5,13.56-7.17l1.56,3.38c-4.51,2.11-8.95,4.39-13.2,6.98Z"/>
        </g>
      </g>
      <g>
        <path class="cls-4" d="M134.06,213.21c4.27-4.83,8.95-9.28,13.82-13.51l14.51,17c-4.13,3.6-8.12,7.38-11.75,11.49l-16.58-14.98Z"/>
        <g>
          <path class="cls-8" d="M157.4,213.2c-1.73,1.62-3.54,3.16-5.22,4.83l-2.51,2.52-1.25,1.26-1.19,1.32-2.74-2.53,1.23-1.36,1.29-1.3,2.58-2.59c1.73-1.72,3.58-3.31,5.36-4.97l2.45,2.81Z"/>
          <path class="cls-8" d="M142.3,218.59l-2.74-2.53,1.29-1.42,1.35-1.36,2.71-2.72c1.81-1.8,3.75-3.47,5.63-5.21l2.45,2.81c-1.82,1.7-3.72,3.32-5.48,5.07l-2.64,2.65-1.32,1.32-1.25,1.38Z"/>
        </g>
      </g>
      <g>
        <path class="cls-4" d="M110.37,248.36c1.34-2.94,2.93-5.74,4.45-8.58.77-1.42,1.64-2.77,2.46-4.16.84-1.38,1.65-2.77,2.57-4.1l18.7,12.25c-.79,1.12-1.47,2.31-2.18,3.49-.69,1.18-1.45,2.33-2.1,3.54-1.29,2.42-2.66,4.8-3.78,7.3l-20.12-9.73Z"/>
        <g>
          <path class="cls-8" d="M132.77,241.81c-1.21,2.04-2.49,4.04-3.65,6.1l-1.69,3.13c-.57,1.04-1.14,2.08-1.63,3.16l-3.34-1.66c.51-1.11,1.09-2.18,1.68-3.25l1.74-3.21c1.2-2.12,2.51-4.18,3.76-6.27l3.14,2.01Z"/>
          <path class="cls-8" d="M119.79,251.21l-3.34-1.66c.53-1.16,1.15-2.29,1.76-3.41l1.83-3.37c1.26-2.22,2.63-4.39,3.94-6.58l3.14,2.01c-1.28,2.14-2.61,4.24-3.84,6.41l-1.78,3.28c-.6,1.09-1.19,2.19-1.71,3.32Z"/>
        </g>
      </g>
      <g>
        <polygon class="cls-4" points="97.54 288.79 97.91 286.4 98.4 284.03 99.38 279.29 100.58 274.6 101.19 272.26 101.9 269.95 123.29 276.43 122.68 278.4 122.17 280.39 121.14 284.37 120.32 288.39 119.9 290.4 119.59 292.43 97.54 288.79"/>
        <g>
          <path class="cls-8" d="M117.19,276.18c-.65,2.28-1.21,4.58-1.81,6.87-.46,2.32-1,4.63-1.41,6.97l-3.67-.65c.43-2.4.97-4.78,1.45-7.16.62-2.36,1.2-4.73,1.86-7.07l3.58,1.04Z"/>
          <path class="cls-8" d="M107.37,288.86l-3.67-.65c.45-2.52,1.02-5.01,1.52-7.52.64-2.47,1.25-4.96,1.95-7.42l3.58,1.04c-.68,2.4-1.27,4.82-1.9,7.23-.49,2.44-1.05,4.87-1.48,7.32Z"/>
        </g>
      </g>
      <g>
        <path class="cls-4" d="M96.64,331.19c-.68-6.4-1.22-12.83-1.1-19.29l22.35.16c-.11,5.48.37,10.96.93,16.42l-22.18,2.71Z"/>
        <g>
          <path class="cls-8" d="M111.99,313.55c0,4.74.31,9.48.81,14.2l-3.7.41c-.52-4.85-.83-9.72-.84-14.59l3.73-.02Z"/>
          <path class="cls-8" d="M106.14,328.48l-3.7.41c-.55-5.08-.87-10.19-.88-15.3l3.73-.02c0,4.98.32,9.96.86,14.91Z"/>
        </g>
      </g>
    </g>
  </g>
  <g>
    <path class="cls-7" d="M290.04,173.62l48-147,9.86,2.4c10.38,2.53,20.76,5.06,31.14,7.6-19.67,49.11-39.35,98.22-59.02,147.32l28.02,23.68c-17.06-10-34.12-20-51.18-30-2.27-1.33-4.55-2.67-6.82-4Z"/>
    <polyline class="cls-3" points="396.04 57.62 379.04 36.62 320.02 183.94 348.04 207.62"/>
    <path class="cls-7" d="M295.04,173.62c14-40,39-110,53-145"/>
    <path class="cls-15" d="M301.04,179.62c14-40,39-110,53-145"/>
    <path class="cls-15" d="M309.04,186.62c14-40,39-110,53-145"/>
    <path class="cls-15" d="M292.04,172.62c14-40,39-110,53-145"/>
    <path class="cls-15" d="M300.04,179.62c14-40,39-110,53-145"/>
  </g>
  <g>
    <path class="cls-7" d="M340.08,194.91l67.35-55.91,5.69,4.4c5.99,4.63,11.99,9.26,17.98,13.89-24.82,17.49-49.64,34.97-74.47,52.46l11.97,20.7c-8.39-10.45-16.79-20.91-25.18-31.36-1.12-1.39-2.24-2.79-3.36-4.18Z"/>
    <polyline class="cls-3" points="436.71 173.09 431.11 157.29 356.64 209.75 368.61 230.46"/>
    <path class="cls-7" d="M343.27,196.55c18.93-14.91,52.37-40.83,70.04-53.3"/>
    <path class="cls-15" d="M345.6,201.44c18.93-14.91,52.37-40.83,70.04-53.3"/>
    <path class="cls-15" d="M348.96,207.46c18.93-14.91,52.37-40.83,70.04-53.3"/>
    <path class="cls-15" d="M341.61,195.08c18.93-14.91,52.37-40.83,70.04-53.3"/>
    <path class="cls-15" d="M344.97,201.11c18.93-14.91,52.37-40.83,70.04-53.3"/>
  </g>
  <path class="cls-11" d="M304.04,178.62c2.66-.5,27.54-5.07,36-3,1.03.25,2.64.65,4,2,2.91,2.9.87,6.46,3,10,2.48,4.13,7.21,2.59,10,6,3.34,4.08,2.14,11.95-1,16-5.25,6.78-19.5,7.48-34-1"/>
  <g class="cls-1">
    <path class="cls-5" d="M311.44,184c6.1-1.36,12.29-2.17,18.54-2.38,2.33-.08,4.84-.31,7.08.29,1.9.51,2.38,1.24,2.18,3.28-.26,2.66-.52,5.22,1.44,7.36,1.48,1.62,3.65,2.26,5.67,2.89,1.64.51,3.12.98,3.85,2.48.62,1.28.54,3.05-.03,4.58-1.75,4.75-8.09,5.66-12.57,5.84-3.21.13-3.22,5.13,0,5,5.77-.24,12.21-1.48,15.83-6.43,2.88-3.94,3.17-10.29-.64-13.75-1.86-1.69-4.29-2.22-6.6-3.02-.49-.17-.7-.24-1.17-.5-.34-.19-.68-.46-.67-.44-.69-.9-.33-2.2-.2-3.23.38-3.02-.25-5.84-2.9-7.63-2.13-1.43-4.88-1.75-7.38-1.77-7.96-.08-15.98.89-23.75,2.62-3.14.7-1.81,5.52,1.33,4.82h0Z"/>
  </g>
  <g>
    <path class="cls-11" d="M311.9,177.25c.52-1.87,5.4-19.31,9.69-23.87.52-.56,1.34-1.42,2.77-1.77,3.06-.74,4.97,1.89,8.24,1.89,3.81,0,4.26-3.57,7.65-4.04,4.06-.56,9.37,3.18,11.28,6.69,3.19,5.88-1,15.15-11.93,21.09"/>
    <g class="cls-1">
      <path class="cls-5" d="M318.68,174.78c.95-4.01,2.22-7.96,3.94-11.72.71-1.55,1.39-3.35,2.49-4.67.83-1,1.39-1.11,2.48-.45,1.58.97,3,2.08,4.93,2.18,1.81.1,3.33-.72,4.68-1.84.94-.78,1.8-1.89,2.84-2.17.28-.08.87-.06,1.25.03.7.17,1.33.48,1.92.91,3.34,2.39,2.45,6.68.95,9.94-.56,1.23-.35,2.69.9,3.42,1.08.63,2.85.34,3.42-.9,1.99-4.34,3.27-9.73.21-13.94-2.33-3.2-6.73-5.61-10.68-4.04-1.73.69-2.96,2.21-4.3,3.17-.11.08-.67.4-.54.35-.28.11-.18.12-.47.07-.88-.15-1.7-.96-2.43-1.42-1.96-1.23-4.22-1.66-6.37-.64-1.95.92-3.26,2.78-4.22,4.64-2.58,4.98-4.53,10.28-5.81,15.73-.74,3.13,4.08,4.46,4.82,1.33h0Z"/>
    </g>
  </g>
  <path class="cls-10" d="M274.76,165.23c-42.17,35.47-69.73,94.08-69.73,160.39s26.77,123.22,67.9,158.83c72.8-16.74,127.1-81.94,127.1-159.83s-53.39-141.98-125.27-159.39Z"/>
  <g id="tires">
    <g>
      <ellipse class="cls-2" cx="153.5" cy="181.61" rx="6.5" ry="7.01" transform="translate(-13.79 12.62) rotate(-4.5)"/>
      <circle class="cls-14" cx="156.04" cy="181.62" r="6.5"/>
      <circle class="cls-6" cx="155.79" cy="182.87" r="2.25"/>
      <line class="cls-13" x1="157.62" y1="181.77" x2="162.54" y2="180.12"/>
      <line class="cls-13" x1="157.54" y1="184.12" x2="158.54" y2="188.12"/>
      <line class="cls-13" x1="153.54" y1="182.87" x2="149.54" y2="182.12"/>
      <line class="cls-13" x1="155.79" y1="180.62" x2="155.54" y2="177.12"/>
    </g>
    <g>
      <ellipse class="cls-2" cx="215.02" cy="181.62" rx="11.07" ry="10.26" transform="translate(-40.62 299.38) rotate(-64.92)"/>
      <circle class="cls-14" cx="218.51" cy="183.61" r="10.26"/>
      <circle class="cls-6" cx="217.19" cy="185.13" r="3.55"/>
      <line class="cls-13" x1="220.56" y1="185.05" x2="228.6" y2="186.62"/>
      <line class="cls-13" x1="218.62" y1="188.21" x2="216.87" y2="194.49"/>
      <line class="cls-13" x1="214.1" y1="183.38" x2="209.19" y2="179.23"/>
      <line class="cls-13" x1="218.94" y1="182.04" x2="221.33" y2="177.04"/>
    </g>
    <g>
      <ellipse class="cls-2" cx="260.9" cy="178.54" rx="6.51" ry="6" transform="translate(-51.76 225.36) rotate(-42.9)"/>
      <ellipse class="cls-14" cx="262.63" cy="176.68" rx="6.5" ry="5.57" transform="translate(-45.56 248.86) rotate(-47.11)"/>
      <ellipse class="cls-6" cx="263.25" cy="177.6" rx="2.25" ry="1.93" transform="translate(-46.03 249.61) rotate(-47.11)"/>
      <line class="cls-13" x1="263.8" y1="175.61" x2="266.12" y2="171.05"/>
      <line class="cls-13" x1="265.23" y1="177.04" x2="268.42" y2="178.65"/>
      <line class="cls-13" x1="261.72" y1="179.25" x2="258.53" y2="181.74"/>
      <line class="cls-13" x1="261.84" y1="176.28" x2="259.47" y2="174.43"/>
    </g>
  </g>
  <g id="car-body">
    <rect class="cls-19" x="138.54" y="152.12" width="44" height="27"/>
    <polygon class="cls-17" points="210.54 108.12 205.54 136.12 159.54 136.12 169.54 108.12 210.54 108.12"/>
    <path class="cls-16" d="M212.54,104.12c-9.34.83-18.69,1.66-28.03,2.5-.13.01-.25.02-.38.03-5.53.49-11.06.98-16.59,1.47h41l-5,28h-46l-19,16h44v27l25-2h30v-61c-8.33-4-16.67-8-25-12ZM232.54,143.12l-23-5,5-29,19,10-1,24Z"/>
    <polygon class="cls-20" points="233.54 119.12 232.54 143.12 209.54 138.12 214.54 109.12 233.54 119.12"/>
    <path class="cls-18" d="M237.54,177.12v-61c-8.33-4-16.67-8-25-12-9.34.83-18.69,1.66-28.03,2.5l-.97-18.5,39.49-2.04,18.51-.96,2,91-6,1Z"/>
    <polyline class="cls-12" points="142.54 158.12 176.54 159.12 142.54 164.12 175.54 167.12 144.54 173.12"/>
    <polygon class="cls-16" points="276.54 173.12 255.54 176.12 246.86 176.12 245.54 95.12 274.54 116.12 276.54 173.12"/>
    <polygon class="cls-19" points="296.54 169.12 276.54 173.12 274.54 116.12 245.54 95.12 246.86 176.12 243.54 176.12 241.54 85.12 279.54 114.12 295.54 135.12 296.54 169.12"/>
    <line class="cls-12" x1="202.54" y1="104.12" x2="202.23" y2="87.18"/>
    <line class="cls-12" x1="222.54" y1="108.12" x2="223.02" y2="85.96"/>
  </g>
</svg>